<?xml version="1.0" encoding="UTF-8" standalone="no"?>
<!-- Created with Inkscape (http://www.inkscape.org/) -->

<svg
   xmlns:dc="http://purl.org/dc/elements/1.1/"
   xmlns:cc="http://creativecommons.org/ns#"
   xmlns:rdf="http://www.w3.org/1999/02/22-rdf-syntax-ns#"
   xmlns:svg="http://www.w3.org/2000/svg"
   xmlns="http://www.w3.org/2000/svg"
   xmlns:sodipodi="http://sodipodi.sourceforge.net/DTD/sodipodi-0.dtd"
   xmlns:inkscape="http://www.inkscape.org/namespaces/inkscape"
   width="4.970624mm"
   height="5.37147mm"
   viewBox="0 0 4.970624 5.37147"
   version="1.1"
   id="svg8"
   inkscape:version="0.92.5 (2060ec1f9f, 2020-04-08)"
   sodipodi:docname="activeRepeatIcon.svg">
  <defs
     id="defs2" />
  <sodipodi:namedview
     id="base"
     pagecolor="#ffffff"
     bordercolor="#666666"
     borderopacity="1.0"
     inkscape:pageopacity="0.0"
     inkscape:pageshadow="2"
     inkscape:zoom="7.9195959"
     inkscape:cx="3.5147203"
     inkscape:cy="7.9566454"
     inkscape:document-units="mm"
     inkscape:current-layer="layer1"
     showgrid="false"
     inkscape:window-width="1366"
     inkscape:window-height="743"
     inkscape:window-x="0"
     inkscape:window-y="0"
     inkscape:window-maximized="1"
     fit-margin-top="0"
     fit-margin-left="0"
     fit-margin-right="0"
     fit-margin-bottom="0" />
  <metadata
     id="metadata5">
    <rdf:RDF>
      <cc:Work
         rdf:about="">
        <dc:format>image/svg+xml</dc:format>
        <dc:type
           rdf:resource="http://purl.org/dc/dcmitype/StillImage" />
        <dc:title></dc:title>
      </cc:Work>
    </rdf:RDF>
  </metadata>
  <g
     inkscape:label="Layer 1"
     inkscape:groupmode="layer"
     id="layer1"
     transform="translate(-90.496831,-53.165456)">
    <g
       style="opacity:1;fill:#4399fd;fill-opacity:1"
       id="g88"
       transform="matrix(0.26458333,0,0,0.26458333,89.807144,52.676209)"
       inkscape:export-xdpi="96"
       inkscape:export-ydpi="96">
      <path
         id="path74"
         d="M 3.99996,9.43316 C 4.00348,8.87499 4.22769,8.34087 4.62363,7.94742 5.01958,7.55397 5.5551,7.33315 6.11329,7.33316 H 18.9333 L 16.08,10.3598 c -0.06,0.0639 -0.1068,0.139 -0.1378,0.221 -0.0309,0.082 -0.0454,0.1693 -0.0426,0.2569 0.0028,0.0876 0.0228,0.1738 0.0589,0.2537 0.0361,0.0798 0.0876,0.1518 0.1515,0.2118 0.0639,0.0599 0.139,0.1067 0.221,0.1377 0.082,0.0309 0.1692,0.0454 0.2568,0.0426 0.0876,-0.0028 0.1738,-0.0228 0.2537,-0.0589 0.0799,-0.0361 0.1518,-0.0875 0.2118,-0.1514 l 4.34,-4.6067 -4.34,-4.60667 C 16.9933,1.99592 16.9214,1.94445 16.8415,1.90835 16.7616,1.87226 16.6754,1.85224 16.5878,1.84946 16.5002,1.84667 16.413,1.86117 16.331,1.89212 16.249,1.92306 16.1739,1.96986 16.11,2.02983 16.0461,2.0898 15.9946,2.16177 15.9585,2.24163 15.9224,2.3215 15.9024,2.40769 15.8996,2.49528 c -0.0028,0.0876 0.0117,0.17489 0.0426,0.25688 0.031,0.082 0.0778,0.15709 0.1378,0.221 l 2.8533,3.02667 H 6.11329 C 5.20149,5.99982 4.32683,6.36112 3.68083,7.00462 3.03484,7.64811 2.67015,8.52136 2.66663,9.43316 v 4.06664 l 1.33333,-1.4133 z"
         inkscape:connector-curvature="0"
         style="fill:#4399fd;fill-opacity:1" />
      <path
         id="path76"
         d="m 20,14.5667 c -0.0035,0.5581 -0.2277,1.0923 -0.6237,1.4857 -0.3959,0.3935 -0.9314,0.6143 -1.4896,0.6143 H 5.06669 L 7.92002,13.64 C 7.97999,13.5761 8.02679,13.501 8.05774,13.419 8.08868,13.337 8.10318,13.2497 8.10039,13.1621 8.09761,13.0745 8.0776,12.9883 8.0415,12.9085 8.00541,12.8286 7.95393,12.7566 7.89002,12.6967 7.82611,12.6367 7.75102,12.5899 7.66902,12.559 7.58703,12.528 7.49974,12.5135 7.41214,12.5163 7.32455,12.5191 7.23836,12.5391 7.15849,12.5752 7.07863,12.6113 7.00666,12.6628 6.94669,12.7267 l -4.34,4.6066 4.34,4.6067 c 0.05997,0.0639 0.13194,0.1154 0.2118,0.1515 0.07987,0.0361 0.16606,0.0561 0.25365,0.0589 0.0876,0.0028 0.17489,-0.0117 0.25688,-0.0427 C 7.75102,22.0768 7.82611,22.03 7.89002,21.97 7.95393,21.91 8.00541,21.8381 8.0415,21.7582 8.0776,21.6783 8.09761,21.5921 8.10039,21.5045 8.10318,21.4169 8.08868,21.3297 8.05774,21.2477 8.02679,21.1657 7.97999,21.0906 7.92002,21.0267 L 5.06669,18 H 17.8867 c 0.9118,0 1.7865,-0.3613 2.4324,-1.0048 0.646,-0.6435 1.0107,-1.5167 1.0143,-2.4285 V 10.5 L 20,11.9133 Z"
         inkscape:connector-curvature="0"
         style="fill:#4399fd;fill-opacity:1" />
    </g>
  </g>
</svg>
