<svg width="117" height="39" viewBox="0 0 117 39" fill="none" xmlns="http://www.w3.org/2000/svg">
<g clip-path="url(#clip0)">
<path d="M4.77256 0H112.227C114.848 0 116.979 2.0982 116.979 4.68V34.32C116.979 36.9018 114.848 39 112.227 39H4.77256C2.15152 39 0.0214233 36.9018 0.0214233 34.32V4.68C0.0214233 2.0982 2.15152 0 4.77256 0Z" fill="white"/>
<path d="M25.6222 18.6108C25.5984 15.8184 27.9423 14.4612 28.0452 14.3988C26.7149 12.4956 24.6561 12.2304 23.9355 12.207C22.2093 12.0276 20.5305 13.2288 19.6516 13.2288C18.7568 13.2288 17.3948 12.2304 15.9378 12.2538C14.0611 12.285 12.2952 13.3536 11.3371 15.0228C9.34951 18.4158 10.8303 23.4078 12.7387 26.1534C13.6968 27.495 14.8054 29.0004 16.2703 28.9458C17.6957 28.8912 18.2341 28.0488 19.9525 28.0488C21.6629 28.0488 22.1617 28.9458 23.6504 28.9146C25.1866 28.8912 26.1448 27.5652 27.0713 26.208C28.1719 24.6714 28.6154 23.1504 28.6312 23.0724C28.5916 23.0568 25.6538 21.9492 25.6222 18.6108Z" fill="#1F1D2B"/>
<path d="M22.8111 10.4052C23.5792 9.46141 24.1018 8.17441 23.9593 6.86401C22.8507 6.91081 21.457 7.62061 20.6572 8.54881C19.9525 9.36781 19.319 10.7016 19.4774 11.9574C20.7285 12.051 22.0113 11.3334 22.8111 10.4052Z" fill="#1F1D2B"/>
<path d="M46.3054 28.7508H44.3099L43.2171 25.3656H39.4162L38.3789 28.7508H36.4388L40.2002 17.2302H42.5282L46.3054 28.7508ZM42.8925 23.946L41.9026 20.943C41.7997 20.631 41.6017 19.9134 41.3167 18.7746H41.2771C41.1583 19.266 40.9762 19.9914 40.7228 20.943L39.7488 23.946H42.8925Z" fill="#1F1D2B"/>
<path d="M55.9739 24.4998C55.9739 25.9116 55.5859 27.027 54.802 27.846C54.1051 28.5792 53.2341 28.938 52.2047 28.938C51.0882 28.938 50.2884 28.548 49.7974 27.7602V32.1204H47.9208V23.1738C47.9208 22.2846 47.897 21.3798 47.8495 20.4438H49.4965L49.5995 21.762H49.6312C50.2567 20.7714 51.2069 20.2722 52.4739 20.2722C53.4717 20.2722 54.2952 20.6622 54.9603 21.4344C55.6413 22.2144 55.9739 23.2284 55.9739 24.4998ZM54.0655 24.5622C54.0655 23.751 53.8834 23.088 53.5112 22.5654C53.1074 22.0194 52.561 21.7464 51.88 21.7464C51.4207 21.7464 51.0011 21.9024 50.621 22.1988C50.2488 22.503 49.9954 22.893 49.8846 23.3844C49.8291 23.6106 49.7974 23.7978 49.7974 23.946V25.3344C49.7974 25.935 49.9875 26.4498 50.3597 26.8632C50.7318 27.2766 51.2228 27.4872 51.8246 27.4872C52.5293 27.4872 53.0757 27.2142 53.4717 26.6838C53.8676 26.1456 54.0655 25.4436 54.0655 24.5622Z" fill="#1F1D2B"/>
<path d="M65.6663 24.4998C65.6663 25.9116 65.2783 27.027 64.4943 27.846C63.7975 28.5792 62.9264 28.938 61.897 28.938C60.7805 28.938 59.9807 28.548 59.4898 27.7602V32.1204H57.6131V23.1738C57.6131 22.2846 57.5893 21.3798 57.5418 20.4438H59.1889L59.2918 21.762H59.3235C59.9491 20.7714 60.8993 20.2722 62.1663 20.2722C63.164 20.2722 63.9875 20.6622 64.6527 21.4344C65.3337 22.2144 65.6663 23.2284 65.6663 24.4998ZM63.7579 24.5622C63.7579 23.751 63.5758 23.088 63.2036 22.5654C62.7997 22.0194 62.2534 21.7464 61.5724 21.7464C61.1131 21.7464 60.6934 21.9024 60.3133 22.1988C59.9411 22.503 59.6957 22.893 59.5769 23.3844C59.5215 23.6106 59.4898 23.7978 59.4898 23.946V25.3344C59.4898 25.935 59.6798 26.4498 60.052 26.8632C60.4242 27.2766 60.9151 27.4872 61.5169 27.4872C62.2217 27.4872 62.776 27.2142 63.164 26.6838C63.5678 26.1456 63.7579 25.4436 63.7579 24.5622Z" fill="#1F1D2B"/>
<path d="M76.5147 25.5216C76.5147 26.5044 76.1663 27.3 75.4774 27.9162C74.7172 28.587 73.6561 28.9224 72.2941 28.9224C71.0351 28.9224 70.0294 28.6806 69.2692 28.2048L69.7047 26.6682C70.5283 27.144 71.431 27.3858 72.4129 27.3858C73.1176 27.3858 73.6719 27.2298 74.06 26.9178C74.4559 26.6058 74.6538 26.1846 74.6538 25.662C74.6538 25.194 74.4876 24.804 74.1708 24.4842C73.8462 24.1644 73.3077 23.868 72.5554 23.595C70.4887 22.8384 69.4672 21.7386 69.4672 20.2956C69.4672 19.3518 69.8314 18.5796 70.552 17.9712C71.2726 17.3706 72.2308 17.0664 73.4265 17.0664C74.4876 17.0664 75.3744 17.2458 76.0792 17.6124L75.6041 19.11C74.9389 18.759 74.1946 18.5796 73.3552 18.5796C72.698 18.5796 72.1753 18.7434 71.8032 19.0554C71.4943 19.344 71.336 19.6872 71.336 20.1006C71.336 20.553 71.5181 20.9352 71.8744 21.2238C72.1833 21.4968 72.7534 21.7932 73.5769 22.113C74.5826 22.5108 75.319 22.9788 75.7941 23.517C76.2772 24.0552 76.5147 24.726 76.5147 25.5216Z" fill="#1F1D2B"/>
<path d="M82.7228 21.8324H80.6561V25.865C80.6561 26.8868 81.0203 27.4016 81.7488 27.4016C82.0814 27.4016 82.3586 27.3704 82.5803 27.3158L82.6357 28.7198C82.2636 28.8524 81.7805 28.9226 81.1787 28.9226C80.4344 28.9226 79.8642 28.6964 79.4446 28.2518C79.0249 27.8072 78.819 27.0584 78.819 26.0132V21.8246H77.5916V20.444H78.819V18.923L80.6561 18.377V20.444H82.7228V21.8324Z" fill="#1F1D2B"/>
<path d="M92.0192 24.531C92.0192 25.8102 91.6471 26.8554 90.9106 27.6744C90.1346 28.5168 89.1052 28.938 87.8224 28.938C86.5871 28.938 85.5973 28.5324 84.8609 27.729C84.1244 26.9256 83.7602 25.9038 83.7602 24.6714C83.7602 23.3844 84.1403 22.3314 84.8925 21.5124C85.6527 20.6934 86.6742 20.28 87.957 20.28C89.1923 20.28 90.19 20.6856 90.9423 21.4968C91.6629 22.2768 92.0192 23.2908 92.0192 24.531ZM90.0792 24.57C90.0792 23.8056 89.9129 23.1582 89.5803 22.6122C89.1844 21.9492 88.6222 21.6216 87.8937 21.6216C87.1414 21.6216 86.5634 21.9492 86.1753 22.6122C85.8348 23.1582 85.6765 23.8212 85.6765 24.609C85.6765 25.3734 85.8428 26.0286 86.1753 26.5668C86.5792 27.2298 87.1493 27.5574 87.8778 27.5574C88.5905 27.5574 89.1527 27.222 89.5645 26.5512C89.905 25.9896 90.0792 25.3344 90.0792 24.57Z" fill="#1F1D2B"/>
<path d="M98.1165 22.0662C97.9344 22.035 97.7364 22.0194 97.5226 22.0194C96.8654 22.0194 96.3507 22.2612 95.9944 22.7526C95.6855 23.1816 95.5272 23.7354 95.5272 24.3906V28.7508H93.6505V23.0568C93.6505 22.0974 93.6346 21.2238 93.595 20.4438H95.2263L95.2975 22.035H95.353C95.5509 21.489 95.8597 21.0444 96.2873 20.7168C96.707 20.4204 97.1584 20.2722 97.6414 20.2722C97.8156 20.2722 97.974 20.2878 98.1086 20.3034L98.1165 22.0662Z" fill="#1F1D2B"/>
<path d="M106.494 24.2034C106.494 24.531 106.471 24.8118 106.423 25.038H100.801C100.825 25.857 101.094 26.4888 101.617 26.9178C102.092 27.3 102.701 27.495 103.454 27.495C104.285 27.495 105.045 27.3624 105.726 27.105L106.019 28.3842C105.219 28.7274 104.277 28.899 103.192 28.899C101.886 28.899 100.856 28.5168 100.112 27.7602C99.3676 27.0036 98.9955 25.9818 98.9955 24.7104C98.9955 23.4624 99.3439 22.4172 100.041 21.5826C100.769 20.6934 101.751 20.2488 102.986 20.2488C104.198 20.2488 105.124 20.6934 105.742 21.5826C106.241 22.3002 106.494 23.166 106.494 24.2034ZM104.705 23.7276C104.721 23.1816 104.594 22.7058 104.341 22.308C104.016 21.7932 103.517 21.5358 102.852 21.5358C102.242 21.5358 101.743 21.7854 101.363 22.2846C101.054 22.6824 100.864 23.166 100.809 23.7198L104.705 23.7276Z" fill="#1F1D2B"/>
<path d="M41.9898 13.1118H41.0079L40.4694 11.4504H38.6006L38.0859 13.1118H37.1357L38.9807 7.44897H40.121L41.9898 13.1118ZM40.3031 10.7484L39.8201 9.26637C39.7726 9.11817 39.6775 8.75937 39.5271 8.19777H39.5112C39.4479 8.43957 39.3687 8.79057 39.2341 9.26637L38.759 10.7484H40.3031Z" fill="#1F1D2B"/>
<path d="M46.6142 9.02466L45.0463 13.1119H44.1515L42.6312 9.02466H43.621L44.3257 11.1853C44.4445 11.5441 44.5475 11.8873 44.6266 12.2149H44.6504C44.7217 11.9185 44.8246 11.5753 44.9513 11.1853L45.6481 9.02466H46.6142Z" fill="#1F1D2B"/>
<path d="M49.9559 13.1117L49.8846 12.6437H49.8608C49.5758 13.0181 49.1719 13.2053 48.6493 13.2053C47.905 13.2053 47.3823 12.6905 47.3823 12.0041C47.3823 10.9979 48.2692 10.4753 49.8054 10.4753V10.3973C49.8054 9.85914 49.5124 9.59395 48.9423 9.59395C48.5305 9.59395 48.1742 9.69535 47.8574 9.89815L47.6674 9.30535C48.0475 9.07135 48.5305 8.95435 49.0927 8.95435C50.1776 8.95435 50.724 9.51595 50.724 10.6469V12.1523C50.724 12.5657 50.7398 12.8855 50.7873 13.1273L49.9559 13.1117ZM49.8292 11.0759C48.8077 11.0759 48.293 11.3177 48.293 11.9027C48.293 12.3317 48.5543 12.5423 48.9264 12.5423C49.3936 12.5423 49.8292 12.1913 49.8292 11.7077V11.0759Z" fill="#1F1D2B"/>
<path d="M52.7748 8.35373C52.466 8.35373 52.2285 8.11973 52.2285 7.80773C52.2285 7.49573 52.4739 7.26953 52.7907 7.26953C53.1074 7.26953 53.3608 7.49573 53.3529 7.80773C53.3529 8.13533 53.1153 8.35373 52.7748 8.35373ZM52.3314 9.02453H53.2499V13.1039H52.3314V9.02453Z" fill="#1F1D2B"/>
<path d="M54.8891 7.15259H55.8077V13.104H54.8891V7.15259Z" fill="#1F1D2B"/>
<path d="M59.7194 13.1117L59.6482 12.6437H59.6244C59.3393 13.0181 58.9355 13.2053 58.4129 13.2053C57.6685 13.2053 57.1459 12.6905 57.1459 12.0041C57.1459 10.9979 58.0328 10.4753 59.569 10.4753V10.3973C59.569 9.85913 59.276 9.59393 58.7059 9.59393C58.2941 9.59393 57.9378 9.69533 57.621 9.89813L57.431 9.29753C57.8111 9.06353 58.2941 8.94653 58.8563 8.94653C59.9412 8.94653 60.4875 9.50813 60.4875 10.6391V12.1445C60.4875 12.5579 60.5034 12.8777 60.543 13.1195H59.7194V13.1117ZM59.5927 11.0759C58.5712 11.0759 58.0565 11.3177 58.0565 11.9027C58.0565 12.3317 58.3179 12.5423 58.69 12.5423C59.1572 12.5423 59.5927 12.1913 59.5927 11.7077V11.0759Z" fill="#1F1D2B"/>
<path d="M64.225 13.2054C63.6391 13.2054 63.2036 12.9636 62.9185 12.48H62.9027L62.8472 13.1118H62.0633C62.087 12.7842 62.095 12.4176 62.095 12.012V7.15259H63.0214V9.62519H63.0373C63.3144 9.17279 63.7499 8.94659 64.3597 8.94659C65.3574 8.94659 66.0542 9.78899 66.0542 11.0136C66.0542 12.2772 65.2782 13.2054 64.225 13.2054ZM64.035 9.65639C63.5045 9.65639 63.0214 10.1088 63.0214 10.7406V11.4582C63.0214 12.0198 63.457 12.48 64.0192 12.48C64.7081 12.48 65.1198 11.9262 65.1198 11.0448C65.1198 10.218 64.6922 9.65639 64.035 9.65639Z" fill="#1F1D2B"/>
<path d="M67.4163 7.15259H68.3348V13.104H67.4163V7.15259Z" fill="#1F1D2B"/>
<path d="M73.3472 11.2865H70.5837C70.5995 12.0587 71.1221 12.4955 71.8902 12.4955C72.302 12.4955 72.6742 12.4253 73.0067 12.3005L73.1493 12.9323C72.7613 13.1039 72.302 13.1819 71.7635 13.1819C70.4649 13.1819 69.6968 12.3785 69.6968 11.1227C69.6968 9.87471 70.4807 8.93091 71.6606 8.93091C72.7137 8.93091 73.3868 9.70311 73.3868 10.8731C73.3868 11.0369 73.3789 11.1773 73.3472 11.2865ZM72.5079 10.6391C72.5079 10.0073 72.1832 9.56271 71.5972 9.56271C71.0667 9.56271 70.6549 10.0151 70.5916 10.6391H72.5079Z" fill="#1F1D2B"/>
<path d="M78.9298 13.2053C77.7183 13.2053 76.9344 12.3161 76.9344 11.1071C76.9344 9.84353 77.7341 8.94653 79.0011 8.94653C80.1968 8.94653 80.9966 9.79673 80.9966 11.0369C80.9966 12.3083 80.1731 13.2053 78.9298 13.2053ZM78.9694 9.60953C78.3043 9.60953 77.8767 10.2257 77.8767 11.0759C77.8767 11.9183 78.3122 12.5267 78.9615 12.5267C79.6108 12.5267 80.0464 11.8715 80.0464 11.0525C80.0384 10.2257 79.6188 9.60953 78.9694 9.60953Z" fill="#1F1D2B"/>
<path d="M85.9457 13.1117H85.0271V10.7639C85.0271 10.0385 84.7421 9.67972 84.1878 9.67972C83.6414 9.67972 83.2692 10.1399 83.2692 10.6781V13.1039H82.3507V10.1945C82.3507 9.83572 82.3428 9.44572 82.319 9.02452H83.1267L83.1663 9.65632H83.19C83.4355 9.21952 83.9423 8.93872 84.5045 8.93872C85.3756 8.93872 85.9457 9.59392 85.9457 10.6625V13.1117Z" fill="#1F1D2B"/>
<path d="M91.9717 9.7109H90.9581V11.6921C90.9581 12.1991 91.1402 12.4487 91.4966 12.4487C91.6549 12.4487 91.7975 12.4331 91.9083 12.4097L91.9321 13.0961C91.75 13.1663 91.5124 13.1975 91.2194 13.1975C90.4909 13.1975 90.0633 12.7997 90.0633 11.7701V9.7109H89.4615V9.0323H90.0633V8.2835L90.966 8.0105V9.0245H91.9796V9.7109" fill="#1F1D2B"/>
<path d="M96.8495 13.1118H95.931V10.7796C95.931 10.0464 95.6459 9.67979 95.0916 9.67979C94.6165 9.67979 94.1731 9.99959 94.1731 10.647V13.104H93.2545V7.15259H94.1731V9.60179H94.1889C94.4819 9.15719 94.8937 8.93879 95.4321 8.93879C96.3111 8.93879 96.8495 9.60959 96.8495 10.6782V13.1118Z" fill="#1F1D2B"/>
<path d="M101.553 11.2865H98.7896C98.8054 12.0587 99.3281 12.4955 100.096 12.4955C100.508 12.4955 100.88 12.4253 101.213 12.3005L101.355 12.9323C100.967 13.1039 100.508 13.1819 99.9695 13.1819C98.6708 13.1819 97.9027 12.3785 97.9027 11.1227C97.9027 9.87471 98.6867 8.93091 99.8665 8.93091C100.92 8.93091 101.593 9.70311 101.593 10.8731C101.593 11.0369 101.585 11.1773 101.553 11.2865ZM100.714 10.6391C100.714 10.0073 100.389 9.56271 99.8032 9.56271C99.2726 9.56271 98.853 10.0151 98.7975 10.6391H100.714Z" fill="#1F1D2B"/>
</g>
<defs>
<clipPath id="clip0">
<rect width="117" height="39" fill="white"/>
</clipPath>
</defs>
</svg>
