<?xml version="1.0" encoding="UTF-8" standalone="no"?>
<!-- Created with Inkscape (http://www.inkscape.org/) -->

<svg
   xmlns:dc="http://purl.org/dc/elements/1.1/"
   xmlns:cc="http://creativecommons.org/ns#"
   xmlns:rdf="http://www.w3.org/1999/02/22-rdf-syntax-ns#"
   xmlns:svg="http://www.w3.org/2000/svg"
   xmlns="http://www.w3.org/2000/svg"
   xmlns:sodipodi="http://sodipodi.sourceforge.net/DTD/sodipodi-0.dtd"
   xmlns:inkscape="http://www.inkscape.org/namespaces/inkscape"
   width="512"
   height="512"
   viewBox="0 0 135.46666 135.46667"
   version="1.1"
   id="svg8"
   inkscape:version="0.92.5 (2060ec1f9f, 2020-04-08)"
   sodipodi:docname="bluemusicon.svg"
   inkscape:export-filename="/home/gedesurya125/Documents/glints-boocamp/gitlab/Final-Project/frontendteam_a/src/assets/img/bluemusicon.png"
   inkscape:export-xdpi="96"
   inkscape:export-ydpi="96">
  <defs
     id="defs2" />
  <sodipodi:namedview
     id="base"
     pagecolor="#ffffff"
     bordercolor="#666666"
     borderopacity="1.0"
     inkscape:pageopacity="0.0"
     inkscape:pageshadow="2"
     inkscape:zoom="0.98994949"
     inkscape:cx="165.12704"
     inkscape:cy="256.82895"
     inkscape:document-units="mm"
     inkscape:current-layer="layer1"
     showgrid="false"
     units="px"
     inkscape:window-width="1366"
     inkscape:window-height="743"
     inkscape:window-x="0"
     inkscape:window-y="0"
     inkscape:window-maximized="1"
     showguides="false" />
  <metadata
     id="metadata5">
    <rdf:RDF>
      <cc:Work
         rdf:about="">
        <dc:format>image/svg+xml</dc:format>
        <dc:type
           rdf:resource="http://purl.org/dc/dcmitype/StillImage" />
        <dc:title></dc:title>
      </cc:Work>
    </rdf:RDF>
  </metadata>
  <g
     inkscape:label="Layer 1"
     inkscape:groupmode="layer"
     id="layer1"
     transform="translate(0,-161.53331)">
    <g
       id="g1547"
       transform="matrix(2.6666664,0,0,2.6666671,7.7905858e-6,-495.00008)">
      <ellipse
         ry="25.214865"
         rx="25.214867"
         cy="271.59998"
         cx="25.4"
         id="path1515"
         style="opacity:1;fill:#25283f;fill-opacity:0.94117647;stroke:#ffffff;stroke-width:0.37026882;stroke-linecap:round;stroke-miterlimit:4;stroke-dasharray:none;stroke-opacity:1" />
      <g
         transform="matrix(0.90456351,0,0,0.90456351,3.6643286,248.30747)"
         id="g1513"
         style="fill:#ffffff">
        <path
           style="fill:#ffffff"
           inkscape:connector-curvature="0"
           d="M 40.5919,7.45557 C 36.169,3.0376 30.282,0.600098 24.0289,0.600098 c -3.8535,0 -7.6765,0.954692 -11.0521,2.762502 -0.6711,0.35547 -0.9151,1.18828 -0.5592,1.85859 0.3558,0.67031 1.1896,0.91406 1.8606,0.5586 2.9791,-1.59454 6.3548,-2.4375 9.7609,-2.4375 6.7004,0 12.6687,3.19921 16.4511,8.15551 C 39.1176,11.122 37.8161,10.4212 36.7078,9.45635 33.1797,6.39932 28.6856,4.71338 24.0289,4.71338 c -4.6567,0 -9.1508,1.68594 -12.6688,4.74297 C 10.2417,10.4313 8.94027,11.122 7.55748,11.4978 8.5539,10.1978 9.713,8.99932 11.0145,7.93291 11.6042,7.45557 11.6957,6.59229 11.2178,6.00322 10.7399,5.41416 9.87568,5.32275 9.28597,5.8001 3.76499,10.2688 0.592712,16.9009 0.592712,23.9899 v 10.6946 c 0,6.2765 5.114278,11.3851 11.397788,11.3851 h 0.8134 c 0.4271,0.7922 1.271,1.3203 2.2267,1.3203 h 2.6131 c 1.4031,0 2.5419,-1.1375 2.5419,-2.539 V 24.2032 c 0,-1.4015 -1.1388,-2.539 -2.5419,-2.539 h -2.6131 c -1.0879,0 -2.0131,0.6804 -2.3792,1.6453 h -0.6609 c -3.45693,0 -6.55803,1.5437 -8.65255,3.9812 v -3.2906 c 0,-3.3414 0.79307,-6.5609 2.27753,-9.4352 2.75541,-0.1218 5.40912,-1.1882 7.54432,-3.0468 3.0096,-2.62034 6.8733,-4.06253 10.8691,-4.06253 3.9959,0 7.8494,1.44219 10.8691,4.06253 2.125,1.8484 4.7788,2.9148 7.5342,3.0367 1.4641,2.8336 2.2877,6.043 2.2877,9.4351 v 3.2907 C 42.6254,24.8431 39.5243,23.2993 36.0673,23.2993 H 35.4064 C 35.0404,22.3446 34.1151,21.654 33.0272,21.654 h -2.6029 c -1.4031,0 -2.5419,1.1375 -2.5419,2.5391 v 20.6578 c 0,1.4015 1.1388,2.539 2.5419,2.539 h 2.6029 c 0.9557,0 1.7996,-0.5382 2.2267,-1.3203 h 0.8134 c 6.2835,0 11.3978,-5.1086 11.3978,-11.3851 V 24.0001 C 47.4549,17.754 45.0147,11.8735 40.5919,7.45557 Z M 15.2442,24.4064 h 2.1961 V 44.6579 H 15.2442 V 24.6806 Z m -3.2435,1.6453 h 0.4982 v 17.2757 h -0.4982 c -4.76858,0 -8.65258,-3.8796 -8.65258,-8.6429 0,-4.7633 3.884,-8.6328 8.65258,-8.6328 z m 18.6168,-1.6453 h 2.1962 v 0.2742 19.9773 h -2.1962 z m 5.4396,18.9312 H 35.5589 V 26.0517 h 0.4982 c 4.7686,0 8.6526,3.8797 8.6526,8.6429 0,4.7633 -3.884,8.643 -8.6526,8.643 z"
           id="path1502" />
      </g>
    </g>
  </g>
</svg>
