<svg width="28" height="28" viewBox="0 0 28 28" fill="none" xmlns="http://www.w3.org/2000/svg">
<path d="M19.25 14.0001C20.9518 14.0001 22.5839 14.6761 23.7873 15.8795C24.9906 17.0828 25.6666 18.7149 25.6666 20.4167C25.6666 22.1186 24.9906 23.7507 23.7873 24.954C22.5839 26.1574 20.9518 26.8334 19.25 26.8334C17.5482 26.8334 15.9161 26.1574 14.7127 24.954C13.5094 23.7507 12.8333 22.1186 12.8333 20.4167C12.8333 18.7149 13.5094 17.0828 14.7127 15.8795C15.9161 14.6761 17.5482 14.0001 19.25 14.0001ZM14 2.04175C14.9685 2.04168 15.9003 2.41223 16.6042 3.07737C17.3082 3.7425 17.731 4.65181 17.7858 5.61875L17.7916 5.83341H23.9166C24.1383 5.83348 24.3517 5.9177 24.5137 6.06905C24.6757 6.2204 24.7742 6.4276 24.7893 6.64877C24.8045 6.86995 24.735 7.08862 24.5951 7.2606C24.4552 7.43257 24.2553 7.54503 24.0356 7.57525L23.9166 7.58341H22.988L22.4046 13.5182C21.868 13.2732 21.2963 13.0866 20.7013 12.9722L21.2298 7.58341H6.76898L8.24715 22.6007C8.27988 22.9358 8.42754 23.2493 8.66507 23.4879C8.90261 23.7265 9.21538 23.8755 9.55031 23.9097L9.69848 23.9167H12.5218C12.8555 24.5596 13.2801 25.1487 13.7771 25.6667H9.69848C8.93718 25.6667 8.2007 25.396 7.62065 24.9029C7.0406 24.4099 6.65478 23.7266 6.53215 22.9752L6.50531 22.7722L5.01081 7.58341H4.08331C3.87187 7.58341 3.66758 7.50683 3.50823 7.36785C3.34887 7.22887 3.24524 7.03689 3.21648 6.82741L3.20831 6.70841C3.20832 6.49697 3.2849 6.29268 3.42387 6.13333C3.56285 5.97398 3.75483 5.87034 3.96431 5.84158L4.08331 5.83341H10.2083C10.2083 4.8278 10.6078 3.86338 11.3189 3.1523C12.0299 2.44123 12.9944 2.04175 14 2.04175ZM16.002 17.0206L15.9203 17.0871L15.8538 17.1687C15.7866 17.2662 15.7506 17.3817 15.7506 17.5001C15.7506 17.6184 15.7866 17.734 15.8538 17.8314L15.9203 17.9131L18.4251 20.4167L15.9203 22.9204L15.8538 23.0021C15.7866 23.0995 15.7506 23.2151 15.7506 23.3334C15.7506 23.4518 15.7866 23.5673 15.8538 23.6647L15.9203 23.7464L16.002 23.8129C16.0994 23.8801 16.215 23.9161 16.3333 23.9161C16.4517 23.9161 16.5672 23.8801 16.6646 23.8129L16.7463 23.7464L19.25 21.2416L21.7536 23.7464L21.8353 23.8129C21.9327 23.8801 22.0483 23.9161 22.1666 23.9161C22.285 23.9161 22.4006 23.8801 22.498 23.8129L22.5796 23.7464L22.6461 23.6647C22.7134 23.5673 22.7494 23.4518 22.7494 23.3334C22.7494 23.2151 22.7134 23.0995 22.6461 23.0021L22.5796 22.9204L20.0748 20.4167L22.5796 17.9131L22.6461 17.8314C22.7134 17.734 22.7494 17.6184 22.7494 17.5001C22.7494 17.3817 22.7134 17.2662 22.6461 17.1687L22.5796 17.0871L22.498 17.0206C22.4006 16.9534 22.285 16.9173 22.1666 16.9173C22.0483 16.9173 21.9327 16.9534 21.8353 17.0206L21.7536 17.0871L19.25 19.5919L16.7463 17.0871L16.6646 17.0206C16.5816 16.9631 16.485 16.9281 16.3844 16.9191C16.2838 16.9101 16.1826 16.9274 16.0906 16.9692L16.002 17.0206ZM14 3.79175C13.4876 3.79177 12.9939 3.98445 12.617 4.33154C12.2401 4.67863 12.0075 5.15476 11.9653 5.66541L11.9583 5.83341H16.0416C16.0416 5.29193 15.8265 4.77263 15.4437 4.38974C15.0608 4.00685 14.5415 3.79175 14 3.79175Z" fill="white"/>
</svg>
