<?xml version="1.0" encoding="UTF-8" standalone="no"?>
<svg
   xmlns:dc="http://purl.org/dc/elements/1.1/"
   xmlns:cc="http://creativecommons.org/ns#"
   xmlns:rdf="http://www.w3.org/1999/02/22-rdf-syntax-ns#"
   xmlns:svg="http://www.w3.org/2000/svg"
   xmlns="http://www.w3.org/2000/svg"
   id="svg8"
   version="1.1"
   viewBox="0 0 4.9514637 4.356338"
   height="4.356338mm"
   width="4.9514637mm">
  <defs
     id="defs2" />
  <metadata
     id="metadata5">
    <rdf:RDF>
      <cc:Work
         rdf:about="">
        <dc:format>image/svg+xml</dc:format>
        <dc:type
           rdf:resource="http://purl.org/dc/dcmitype/StillImage" />
        <dc:title></dc:title>
      </cc:Work>
    </rdf:RDF>
  </metadata>
  <g
     transform="translate(56.148351,-282.72659)"
     id="layer1">
    <g
       transform="matrix(0.26458333,0,0,0.26458333,-56.347951,282.72659)"
       id="g865"
       style="fill:#666872;fill-opacity:1">
      <path
         style="fill:#666872;fill-opacity:1"
         d="M 19.3076,3.71837 C 19.1998,3.29597 19.0333,2.89078 18.8131,2.51461 18.6015,2.12329 18.331,1.7669 18.0111,1.45797 17.5472,0.995368 16.9979,0.627413 16.3937,0.374582 c -1.2161,-0.499443 -2.5799,-0.499443 -3.796,0 -0.5711,0.241874 -1.0958,0.581313 -1.5506,1.003138 L 10.9803,1.45797 10.1115,2.32736 9.24268,1.45797 9.17585,1.37772 C 8.72106,0.955895 8.1964,0.616456 7.62534,0.374582 6.4092,-0.124861 5.0454,-0.124861 3.82926,0.374582 3.22508,0.627413 2.67577,0.995368 2.21192,1.45797 1.5775,2.07568 1.1284,2.85864 0.915376,3.71837 0.802049,4.15497 0.748096,4.60486 0.754979,5.05589 c 0,0.42399 0.053466,0.84665 0.160397,1.25726 C 1.02743,6.72784 1.18899,7.12752 1.39657,7.50354 1.62074,7.8901 1.89489,8.24537 2.21192,8.56018 L 10.1115,16.4649 18.0111,8.56018 C 18.3279,8.24854 18.5992,7.89142 18.8131,7.50354 19.2472,6.76136 19.4734,5.91584 19.468,5.05589 19.4749,4.60486 19.421,4.15496 19.3076,3.71837 Z M 17.971,5.89852 c -0.1601,0.61114 -0.4782,1.16932 -0.9223,1.6184 L 10.0848,14.472 3.12084,7.51692 C 2.89391,7.28823 2.69635,7.03212 2.53272,6.75453 2.37875,6.47991 2.25761,6.18811 2.17182,5.88515 2.10333,5.58223 2.06749,5.27283 2.06489,4.96226 2.0667,4.64281 2.10255,4.32447 2.17182,4.01263 2.2551,3.70879 2.37635,3.41669 2.53272,3.14324 2.69311,2.86236 2.89094,2.60823 3.12084,2.38086 3.46422,2.04185 3.86762,1.76972 4.31046,1.57835 c 0.89236,-0.35722 1.88786,-0.35722 2.78022,0 0.44109,0.18324 0.83941,0.45208 1.17625,0.78913 l 1.81787,1.8324 1.8178,-1.8324 c 0.3366,-0.33765 0.7363,-0.60578 1.1763,-0.78913 0.8923,-0.35722 1.8878,-0.35722 2.7802,0 0.4424,0.19126 0.8461,0.46411 1.1896,0.80251 0.2326,0.22069 0.4277,0.47749 0.5747,0.76238 0.3096,0.54633 0.4709,1.16423 0.4679,1.79227 0.0182,0.32318 -0.0088,0.64731 -0.0802,0.96301 z"
         id="path854" />
    </g>
  </g>
</svg>
