<svg width="28" height="28" viewBox="0 0 28 28" fill="none" xmlns="http://www.w3.org/2000/svg">
<path d="M21.7778 23.3334H4.66664V6.2223H14.9489L16.5044 4.66675H4.66664C4.25408 4.66675 3.85842 4.83064 3.5667 5.12236C3.27497 5.41408 3.11108 5.80974 3.11108 6.2223V23.3334C3.11108 23.746 3.27497 24.1416 3.5667 24.4334C3.85842 24.7251 4.25408 24.889 4.66664 24.889H21.7778C22.1903 24.889 22.586 24.7251 22.8777 24.4334C23.1694 24.1416 23.3333 23.746 23.3333 23.3334V11.6667L21.7778 13.2223V23.3334Z" fill="white"/>
<path d="M26.0789 4.54231L23.4578 1.9212C23.3415 1.80456 23.2033 1.71202 23.0511 1.64887C22.899 1.58573 22.7359 1.55322 22.5711 1.55322C22.4064 1.55322 22.2433 1.58573 22.0911 1.64887C21.939 1.71202 21.8008 1.80456 21.6845 1.9212L11.0211 12.6468L10.1578 16.3879C10.121 16.5692 10.1249 16.7565 10.1691 16.9361C10.2134 17.1158 10.2969 17.2834 10.4136 17.427C10.5304 17.5705 10.6775 17.6864 10.8444 17.7663C11.0113 17.8462 11.1939 17.8881 11.3789 17.889C11.4745 17.8995 11.5711 17.8995 11.6667 17.889L15.4389 17.0568L26.0789 6.31565C26.1956 6.19932 26.2881 6.06113 26.3512 5.90898C26.4144 5.75683 26.4469 5.59371 26.4469 5.42898C26.4469 5.26425 26.4144 5.10113 26.3512 4.94898C26.2881 4.79683 26.1956 4.65864 26.0789 4.54231ZM14.63 15.6179L11.7834 16.2479L12.4445 13.4245L20.4711 5.34343L22.6645 7.53676L14.63 15.6179ZM23.5434 6.65787L21.35 4.46454L22.5556 3.23565L24.7645 5.44454L23.5434 6.65787Z" fill="white"/>
</svg>
