<?xml version="1.0" encoding="UTF-8" standalone="no"?>
<svg
   xmlns:dc="http://purl.org/dc/elements/1.1/"
   xmlns:cc="http://creativecommons.org/ns#"
   xmlns:rdf="http://www.w3.org/1999/02/22-rdf-syntax-ns#"
   xmlns:svg="http://www.w3.org/2000/svg"
   xmlns="http://www.w3.org/2000/svg"
   style="fill:none"
   id="svg41"
   version="1.1"
   viewBox="0 0 50.580647 50.580647"
   height="50.580647"
   width="50.580647">
  <metadata
     id="metadata47">
    <rdf:RDF>
      <cc:Work
         rdf:about="">
        <dc:format>image/svg+xml</dc:format>
        <dc:type
           rdf:resource="http://purl.org/dc/dcmitype/StillImage" />
        <dc:title></dc:title>
      </cc:Work>
    </rdf:RDF>
  </metadata>
  <defs
     id="defs45" />
  <circle
     r="25.290323"
     cy="25.290323"
     cx="25.290323"
     id="path49"
     style="opacity:1;fill:#0065da;fill-opacity:1;stroke:#0065da;stroke-width:0;stroke-miterlimit:4;stroke-dasharray:none;stroke-opacity:1" />
  <path
     style="fill:#ffffff;stroke-width:0.9096657"
     id="path39"
     d="M 40.266549,8.7932807 C 36.243189,4.7744052 30.887987,2.5570925 25.199756,2.5570925 c -3.505398,0 -6.983049,0.868451 -10.053717,2.5129531 -0.610477,0.3233595 -0.832435,1.080938 -0.508685,1.6906962 0.323659,0.6097582 1.082138,0.8314892 1.692524,0.5081392 2.709984,-1.4504986 5.780743,-2.2173104 8.879157,-2.2173104 6.095123,0 11.524282,2.9102115 14.965001,7.4187864 C 38.925429,12.128504 37.741498,11.491011 36.733317,10.61332 33.523925,7.8324463 29.435796,6.2988038 25.199756,6.2988038 c -4.236041,0 -8.32417,1.5336425 -11.524374,4.3145172 -1.01737,0.886879 -2.201235,1.515184 -3.459113,1.857037 0.906408,-1.182565 1.960803,-2.272781 3.144733,-3.2428571 C 13.897431,8.7932807 13.980666,8.0079844 13.545937,7.4721274 13.111208,6.9362799 12.325057,6.8531275 11.788617,7.287356 6.7663726,11.352378 3.8806601,17.385372 3.8806601,23.833991 v 9.728511 c 0,5.709517 4.6522835,10.356634 10.3681749,10.356634 h 0.739922 c 0.388518,0.720639 1.156185,1.201032 2.025552,1.201032 h 2.377048 c 1.276352,0 2.31228,-1.034745 2.31228,-2.309641 V 24.028023 c 0,-1.274896 -1.035928,-2.309641 -2.31228,-2.309641 h -2.377048 c -0.989624,0 -1.831247,0.618937 -2.164273,1.496674 h -0.601201 c -3.144648,0 -5.9656124,1.40425 -7.8709254,3.621561 V 23.84327 c 0,-3.039557 0.7214288,-5.968225 2.0717905,-8.582876 2.5065009,-0.110803 4.9204919,-1.080866 6.8628079,-2.77157 2.737731,-2.383632 6.252406,-3.6955433 9.887249,-3.6955433 3.634933,0 7.14033,1.3119113 9.887248,3.6955433 1.933039,1.681426 4.34711,2.651493 6.853602,2.762381 1.331843,2.577629 2.081044,5.497109 2.081044,8.582786 v 2.993437 c -1.905296,-2.21731 -4.72626,-3.621652 -7.870975,-3.621652 H 35.549478 C 35.21654,22.337319 34.374826,21.709103 33.385201,21.709103 h -2.36777 c -1.27635,0 -2.312277,1.034745 -2.312277,2.309732 v 18.791692 c 0,1.274896 1.035927,2.309641 2.312277,2.309641 h 2.36777 c 0.869367,0 1.637034,-0.489582 2.025554,-1.201032 h 0.739922 c 5.715884,0 10.368187,-4.647117 10.368187,-10.356634 V 23.843269 C 46.509627,18.161407 44.289818,12.812118 40.266549,8.7932807 Z M 17.208615,24.212867 h 1.997716 V 42.634962 H 17.208615 V 24.462298 Z m -2.9505,1.496673 h 0.453197 v 15.715111 h -0.453197 c -4.3378135,0 -7.8709542,-3.529139 -7.8709542,-7.862149 0,-4.333011 3.5331407,-7.852962 7.8709542,-7.852962 z M 31.19318,24.212867 h 1.997809 v 0.249431 18.172664 h -1.99781 z M 36.141397,41.43393 H 35.688202 V 25.70954 h 0.453195 c 4.337832,0 7.870974,3.529229 7.870974,7.862149 0,4.333011 -3.533141,7.862241 -7.870974,7.862241 z" />
</svg>
