<svg width="117" height="39" viewBox="0 0 117 39" fill="none" xmlns="http://www.w3.org/2000/svg">
<g clip-path="url(#clip0)">
<path d="M4.77256 0H112.227C114.848 0 116.979 2.0982 116.979 4.68V34.32C116.979 36.9018 114.848 39 112.227 39H4.77256C2.15152 39 0.0214233 36.9018 0.0214233 34.32V4.68C0.0214233 2.0982 2.15152 0 4.77256 0Z" fill="white"/>
<path d="M14.2906 18.7199C14.2906 18.7199 6.22164 14.3129 5.74652 14.0555C5.27141 13.7981 4.7963 13.9541 4.7963 14.4923V33.4853C4.7963 33.8909 5.13679 34.0625 5.54856 33.8441C5.96032 33.6179 14.2906 29.0705 14.2906 29.0705C14.2906 29.0705 15.423 28.4543 15.9852 28.1423C16.8959 27.6431 18.7171 26.6525 18.7171 26.6525C18.7171 26.6525 22.4784 24.6011 22.9773 24.3281C23.4762 24.0551 23.4287 23.6807 23.009 23.4701C22.5893 23.2595 18.725 21.1301 18.725 21.1301L14.2906 18.7199Z" fill="url(#paint0_linear)"/>
<path d="M15.7794 23.8679L5.16848 13.9619C4.92301 14.0165 4.77255 14.2037 4.77255 14.5079V33.4619C4.77255 33.7193 4.87549 33.8753 5.01011 33.9299L15.7794 23.8679Z" fill="url(#paint1_linear)"/>
<mask id="mask0" mask-type="alpha" maskUnits="userSpaceOnUse" x="4" y="13" width="12" height="21">
<path d="M15.7794 23.8679L5.16848 13.9619C4.92301 14.0165 4.77255 14.2037 4.77255 14.5079V33.4619C4.77255 33.7193 4.87549 33.8753 5.01011 33.9299L15.7794 23.8679Z" fill="white"/>
</mask>
<g mask="url(#mask0)">
</g>
<mask id="mask1" mask-type="alpha" maskUnits="userSpaceOnUse" x="5" y="23" width="14" height="11">
<path d="M5.44428 33.8756L11.5812 30.5528C13.0936 29.726 14.2893 29.0708 14.2893 29.0708L18.7475 26.7074L15.778 23.8682L5.00876 33.9302C5.12754 33.9692 5.34134 33.9458 5.50763 33.8678" fill="white"/>
</mask>
<g mask="url(#mask1)">
<path d="M14.2735 18.7202C14.2576 18.7592 6.18863 14.3444 5.72144 14.1182C5.24632 13.8218 4.77121 13.9856 4.77121 14.5082V33.5402C4.77121 33.9614 5.11171 34.133 5.48388 33.9302C5.93524 33.6806 14.2576 29.1332 14.2735 29.0942L18.7079 26.6762C18.6841 26.7074 22.4375 24.656 22.9047 24.4142C23.4432 24.11 23.3877 23.7356 22.9839 23.5562C22.5484 23.3066 18.6841 21.1772 18.7079 21.1382L14.2735 18.7202Z" fill="url(#paint2_linear)"/>
</g>
<path d="M5.7291 14.0476C5.52322 13.9462 5.32526 13.915 5.15897 13.954L15.7778 23.8756L18.7155 21.1378L14.2891 18.7198C14.2891 18.7198 10.116 16.4422 7.59788 15.0694L5.7291 14.0476Z" fill="url(#paint3_linear)"/>
<mask id="mask2" mask-type="alpha" maskUnits="userSpaceOnUse" x="5" y="13" width="14" height="11">
<path d="M5.7291 14.0476C5.52322 13.9462 5.32526 13.915 5.15897 13.954L15.7778 23.8756L18.7155 21.1378L14.2891 18.7198C14.2891 18.7198 10.116 16.4422 7.59788 15.0694L5.7291 14.0476Z" fill="white"/>
</mask>
<g mask="url(#mask2)">
</g>
<path d="M80.1256 27.2142L79.2466 28.0332C79.0407 28.1424 78.8428 28.275 78.6448 28.3608C78.0351 28.6338 77.4174 28.704 76.8631 28.704C76.2772 28.704 75.3586 28.665 74.4242 27.9942C73.1256 27.0894 72.5555 25.5216 72.5555 24.1644C72.5555 21.3486 74.8677 19.968 76.7602 19.968C77.4174 19.968 78.0984 20.1318 78.6448 20.475C79.5634 21.0756 79.8009 21.8556 79.9276 22.2768L75.6199 24.0006L74.2104 24.1098C74.6697 26.4186 76.2455 27.7602 77.9876 27.7602C78.8586 27.7602 79.5 27.4794 80.0939 27.1908C80.0939 27.1908 80.2127 27.1284 80.1256 27.2142ZM77.4966 22.581C77.845 22.4562 78.0192 22.347 78.0192 22.0896C78.0192 21.3564 77.2036 20.514 76.2217 20.514C75.5011 20.514 74.1392 21.0834 74.1392 23.0568C74.1392 23.3688 74.1788 23.6964 74.1946 24.024L77.4966 22.581Z" fill="#1F1D2B"/>
<path d="M71.1301 27.1128C71.1301 27.8148 71.2568 27.924 71.8586 27.9786C72.1753 28.0176 72.4842 28.0332 72.793 28.0644L72.1199 28.4622H68.897C69.3167 27.9162 69.3959 27.8616 69.3959 27.5028V27.0972L69.388 16.3332H67.9626L69.3326 15.678H71.9457C71.3756 16.0056 71.2093 16.2006 71.138 16.8324L71.1301 27.1128Z" fill="#1F1D2B"/>
<path d="M66.1335 20.8571C66.5532 21.2003 67.4242 21.9257 67.4242 23.2985C67.4242 24.6401 66.664 25.2719 65.8959 25.8725C65.6584 26.1065 65.3812 26.3639 65.3812 26.7617C65.3812 27.1595 65.6584 27.3779 65.8563 27.5417L66.5136 28.0487C67.3133 28.7195 68.0418 29.3357 68.0418 30.5837C68.0418 32.2841 66.3789 34.0079 63.2432 34.0079C60.5984 34.0079 59.3235 32.7599 59.3235 31.4183C59.3235 30.7631 59.6482 29.8427 60.733 29.2109C61.8654 28.5245 63.3937 28.4309 64.2172 28.3763C63.9638 28.0487 63.6708 27.7055 63.6708 27.1439C63.6708 26.8397 63.7658 26.6525 63.8529 26.4341C63.655 26.4497 63.4491 26.4731 63.267 26.4731C61.3348 26.4731 60.2421 25.0379 60.2421 23.6261C60.2421 22.7915 60.6222 21.8711 61.414 21.2003C62.4513 20.3501 63.6946 20.2019 64.6765 20.2019H68.4378L67.2658 20.8571H66.1335ZM64.8507 28.8833C64.7002 28.8599 64.6131 28.8599 64.431 28.8599C64.2647 28.8599 63.267 28.8989 62.4989 29.1563C62.095 29.3045 60.9151 29.7491 60.9151 31.0595C60.9151 32.3699 62.1821 33.3137 64.1538 33.3137C65.9197 33.3137 66.8541 32.4635 66.8541 31.3247C66.8541 30.3731 66.2443 29.8739 64.8507 28.8833ZM65.3654 25.3889C65.7851 24.9755 65.8246 24.3983 65.8246 24.0707C65.8246 22.7681 65.0486 20.7479 63.5362 20.7479C63.069 20.7479 62.5543 20.9819 62.2613 21.3485C61.9525 21.7229 61.8654 22.2143 61.8654 22.6823C61.8654 23.8913 62.578 25.8959 64.138 25.8959C64.5894 25.8959 65.0803 25.6775 65.3654 25.3889Z" fill="#1F1D2B"/>
<path d="M54.7624 28.704C51.8563 28.704 50.3043 26.442 50.3043 24.3984C50.3043 22.0116 52.2602 19.968 55.0396 19.968C57.724 19.968 59.4106 22.0662 59.4106 24.2736C59.4106 26.4264 57.7477 28.704 54.7624 28.704ZM57.0351 27.2298C57.4785 26.6448 57.5894 25.9116 57.5894 25.2018C57.5894 23.5872 56.8213 20.514 54.5407 20.514C53.9389 20.514 53.3292 20.748 52.8857 21.138C52.1731 21.7776 52.0385 22.581 52.0385 23.3688C52.0385 25.1784 52.9333 28.158 55.1584 28.158C55.8869 28.158 56.6154 27.8148 57.0351 27.2298Z" fill="#1F1D2B"/>
<path d="M45.0226 28.704C42.1165 28.704 40.5645 26.442 40.5645 24.3984C40.5645 22.0116 42.5204 19.968 45.2998 19.968C47.9842 19.968 49.6708 22.0662 49.6708 24.2736C49.6708 26.4264 48.0079 28.704 45.0226 28.704ZM47.2952 27.2298C47.7387 26.6448 47.8495 25.9116 47.8495 25.2018C47.8495 23.5872 47.0735 20.514 44.8009 20.514C44.1912 20.514 43.5894 20.748 43.1459 21.138C42.4253 21.7776 42.2986 22.581 42.2986 23.3688C42.2986 25.1784 43.2014 28.158 45.4186 28.158C46.1471 28.158 46.8756 27.8148 47.2952 27.2298Z" fill="#1F1D2B"/>
<path d="M39.3608 28.1658L36.8982 28.7274C35.9004 28.8834 35.0056 29.0238 34.0554 29.0238C29.3043 29.016 27.4988 25.5528 27.4988 22.8384C27.4988 19.5312 30.0645 16.458 34.4513 16.458C35.3778 16.458 36.2726 16.5906 37.0882 16.8168C38.3789 17.1756 38.9808 17.6202 39.3608 17.8776L37.9276 19.227L37.3258 19.3596L37.7534 18.681C37.1674 18.1194 36.0984 17.0742 34.0712 17.0742C31.3552 17.0742 29.3043 19.1178 29.3043 22.1052C29.3043 25.311 31.6402 28.3296 35.3936 28.3296C36.4943 28.3296 37.0645 28.1112 37.5792 27.9084V25.155L34.9819 25.2954L36.3597 24.5622H40.0102L39.5667 24.9912C39.448 25.0926 39.4321 25.1238 39.3925 25.2642C39.3767 25.4202 39.3608 25.9116 39.3608 26.091V28.1658Z" fill="#1F1D2B"/>
<path d="M85.439 27.2922V31.902H84.5125V20.1786H85.439V21.5124C86.0408 20.6466 87.1494 19.968 88.4242 19.968C90.7206 19.968 92.2726 21.6918 92.2726 24.414C92.2726 27.1206 90.7285 28.8756 88.4242 28.8756C87.2206 28.8756 86.1358 28.2594 85.439 27.2922ZM91.3224 24.4842C91.3224 22.4094 90.2376 20.826 88.3055 20.826C87.1098 20.826 85.9616 21.762 85.4627 22.581V26.3718C85.9616 27.1908 87.1098 28.158 88.3055 28.158C90.2376 28.158 91.3224 26.559 91.3224 24.4842Z" fill="#1F1D2B"/>
<path d="M93.5397 16.926H94.4899V28.704H93.5397V16.926Z" fill="#1F1D2B"/>
<path d="M104.824 31.0908C105.022 31.1766 105.362 31.2312 105.576 31.2312C106.146 31.2312 106.534 31.005 106.89 30.1938L107.563 28.6806L103.913 20.124H104.95L108.078 27.5418L111.182 20.124H112.227L107.777 30.4746C107.318 31.5432 106.589 32.058 105.592 32.058C105.291 32.058 104.895 32.0034 104.665 31.9332L104.824 31.0908Z" fill="#1F1D2B"/>
<path d="M102.203 28.6962C102.139 28.3998 102.092 28.1424 102.06 27.924C102.028 27.7056 102.012 27.4872 102.012 27.261C101.696 27.7212 101.244 28.1112 100.658 28.4154C100.08 28.7196 99.5261 28.8678 98.7738 28.8678C97.8632 28.8678 97.1584 28.6494 96.6595 28.197C96.1607 27.7524 95.9073 27.144 95.9073 26.3796C95.9073 25.6152 96.2715 24.9912 97 24.5154C97.7286 24.0396 98.6709 23.7978 99.8349 23.7978H102.005V22.737C102.005 22.1286 101.791 21.645 101.371 21.3018C100.951 20.9508 100.358 20.7792 99.5894 20.7792C98.8847 20.7792 98.3145 20.943 97.879 21.255C97.4514 21.5748 97.2297 21.9726 97.2297 22.4484H96.2795L96.2636 22.4016C96.2319 21.7542 96.5249 21.1926 97.1663 20.7012C97.7998 20.2098 98.6233 19.968 99.6448 19.968C100.658 19.968 101.482 20.2098 102.1 20.6934C102.717 21.1692 103.026 21.8634 103.026 22.7604V26.9724C103.026 27.2766 103.042 27.5652 103.081 27.8538C103.121 28.1424 103.184 28.4232 103.264 28.6962H102.203ZM98.8926 28.08C99.6844 28.08 100.255 27.9006 100.833 27.5574C101.411 27.2142 101.799 26.7618 102.005 26.2158V24.57H99.819C98.9876 24.57 98.2987 24.7494 97.7523 25.1238C97.2059 25.4904 96.9367 25.935 96.9367 26.4576C96.9367 26.949 97.1109 27.339 97.4593 27.6354C97.8157 27.9318 98.2908 28.08 98.8926 28.08Z" fill="#1F1D2B"/>
<path d="M27.1821 8.99338C27.1821 7.31638 28.5441 6.23218 30.2387 6.23218C31.371 6.23218 32.1154 6.73138 32.5826 7.33978L31.7511 7.77658C31.4344 7.37878 30.888 7.06678 30.2387 7.06678C29.0905 7.06678 28.2273 7.87018 28.2273 8.99338C28.2353 10.1088 29.0905 10.92 30.2387 10.92C30.8326 10.92 31.3552 10.6704 31.6165 10.4364V9.61738H29.8744V8.79058H32.6301V10.7796C32.0599 11.3646 31.2443 11.7546 30.2387 11.7546C28.5441 11.7624 27.1821 10.6704 27.1821 8.99338Z" fill="#1F1D2B"/>
<path d="M33.9525 11.6845V6.31812H37.9989V7.14492H34.9898V8.52551H37.9355V9.36011H34.9898V10.8577H37.9989V11.6845H33.9525Z" fill="#1F1D2B"/>
<path d="M40.7466 11.6845V7.14492H38.9887V6.31812H43.526V7.14492H41.7681V11.6845H40.7466Z" fill="#1F1D2B"/>
<path d="M47.1606 6.31812H48.1504V11.6845H47.1606V6.31812Z" fill="#1F1D2B"/>
<path d="M50.9853 11.6845V7.14492H49.2274V6.31812H53.7647V7.14492H52.0068V11.6845H50.9853Z" fill="#1F1D2B"/>
<path d="M57.1538 9.00119C57.1538 7.40999 58.3971 6.23999 60.1708 6.23999C61.9287 6.23999 63.1799 7.40999 63.1799 9.00119C63.1799 10.5924 61.9208 11.7624 60.1708 11.7624C58.3971 11.7624 57.1538 10.5924 57.1538 9.00119ZM62.1029 8.95439C62.1029 7.86239 61.3428 7.04339 60.1629 7.04339C58.9751 7.04339 58.2228 7.86239 58.2228 8.95439C58.2228 10.0386 58.9751 10.8654 60.1629 10.8654C61.3428 10.8654 62.1029 10.0464 62.1029 8.95439Z" fill="#1F1D2B"/>
<path d="M68.3824 11.6845L65.3496 7.84692V11.6845H64.3281V6.31812H65.3733L68.3428 10.0387V6.31812H69.3643V11.6845H68.3824Z" fill="#1F1D2B"/>
</g>
<defs>
<linearGradient id="paint0_linear" x1="9.17332" y1="20.2495" x2="15.7599" y2="30.0622" gradientUnits="userSpaceOnUse">
<stop stop-color="#FF177B"/>
<stop offset="1" stop-color="#FFEC73"/>
</linearGradient>
<linearGradient id="paint1_linear" x1="12.0355" y1="6.64052" x2="0.252653" y2="32.0427" gradientUnits="userSpaceOnUse">
<stop stop-color="#064AA2"/>
<stop offset="1" stop-color="#63FFD4"/>
</linearGradient>
<linearGradient id="paint2_linear" x1="15.6919" y1="17.9832" x2="0.945683" y2="26.9388" gradientUnits="userSpaceOnUse">
<stop stop-color="#FF4521"/>
<stop offset="1" stop-color="#8A33DB"/>
</linearGradient>
<linearGradient id="paint3_linear" x1="7.16683" y1="10.7748" x2="12.3506" y2="24.4537" gradientUnits="userSpaceOnUse">
<stop stop-color="#00A3B5"/>
<stop offset="1" stop-color="#D6FFA1"/>
</linearGradient>
<clipPath id="clip0">
<rect width="117" height="39" fill="white"/>
</clipPath>
</defs>
</svg>
