<svg width="17" height="17" viewBox="0 0 17 17" fill="none" xmlns="http://www.w3.org/2000/svg">
<g clip-path="url(#clip0)">
<path d="M3.73008 6.91688C4.06149 5.91419 4.7011 5.04178 5.55766 4.42411C6.41421 3.80643 7.44396 3.47504 8.49999 3.47721C9.69708 3.47721 10.7794 3.90221 11.6294 4.59779L14.1029 2.125C12.5956 0.811042 10.664 0 8.49999 0C5.14958 0 2.26524 1.91108 0.878326 4.71042L3.73008 6.91688Z" fill="#EA4335"/>
<path d="M11.3617 12.7592C10.5896 13.2571 9.60925 13.5227 8.5 13.5227C7.44817 13.5249 6.42232 13.1961 5.56767 12.583C4.71301 11.9699 4.07287 11.1035 3.73787 10.1064L0.876205 12.2789C1.57834 13.7 2.66494 14.8958 4.01258 15.7303C5.36022 16.5648 6.91489 17.0047 8.5 16.9999C10.5775 16.9999 12.5623 16.2612 14.0491 14.8749L11.3624 12.7592H11.3617Z" fill="#34A853"/>
<path d="M14.0491 14.8749C15.6039 13.4243 16.6133 11.2653 16.6133 8.49993C16.6133 7.99701 16.536 7.45655 16.4206 6.95435H8.5V10.2389H13.0588C12.8343 11.3432 12.2301 12.1981 11.3624 12.7591L14.0491 14.8749Z" fill="#4A90E2"/>
<path d="M3.73788 10.1065C3.56459 9.58868 3.47656 9.04611 3.47721 8.50003C3.47721 7.94612 3.56576 7.41416 3.73009 6.91691L0.87834 4.71045C0.294941 5.88819 -0.00579959 7.18573 6.19469e-06 8.50003C6.19469e-06 9.86003 0.315215 11.1421 0.876215 12.279L3.73788 10.1065Z" fill="#FBBC05"/>
</g>
<defs>
<clipPath id="clip0">
<rect width="17" height="17" fill="white"/>
</clipPath>
</defs>
</svg>
