<svg width="459" height="610" viewBox="0 0 459 610" fill="none" xmlns="http://www.w3.org/2000/svg">
<path d="M361.6 524.402C299.955 506.173 234.417 505.69 172.265 522.11C170.632 522.541 168.968 522.981 167.276 523.428C120.552 535.769 6.54507 593.707 115.568 591.838C224.591 589.969 265.038 585.608 252.29 595.576C239.542 605.544 242.159 608.658 275.115 609.904C308.071 611.15 464.907 600.46 437.652 566.591C421.953 547.082 392.829 533.637 361.6 524.402Z" fill="#E0E0E0"/>
<path fill-rule="evenodd" clip-rule="evenodd" d="M160.735 450.108L160.722 450.115C160.71 449.959 160.698 449.809 160.679 449.653L160.735 450.108Z" stroke="black" stroke-width="0.5"/>
<path d="M160.722 450.115C161.252 456.569 157.427 463.559 150.537 467.533C141.516 472.741 130.657 470.817 126.284 463.235C121.905 455.659 125.674 445.292 134.694 440.084C137.847 438.265 141.223 437.318 144.463 437.175L133.324 365.382L172.609 346.318L178.547 377.736L152.967 389.367L160.599 449.062C160.63 449.255 160.661 449.455 160.68 449.653C160.698 449.809 160.71 449.959 160.722 450.115Z" fill="#F2F1F0"/>
<path d="M148.493 158.563L82.55 190.777C82.55 190.777 87.9513 200.184 96.256 220.12C103.489 237.476 128.981 303.008 135.454 319.667C142.139 333.117 135.311 350.81 119.661 359.844C103.488 369.182 84.0205 365.737 76.177 352.143C68.3275 338.556 75.0805 319.972 91.2535 310.634C94.3436 308.852 97.5579 307.538 100.785 306.671C92.1754 285.54 80.4133 257.294 71.648 238.604C56.9206 207.199 22.7435 150.14 22.7435 150.14L157.097 85.0127C157.097 85.0127 194.682 183.85 204.382 225.484C214.076 267.112 217.116 280.967 217.116 280.967L148.493 158.563Z" fill="#F2F1F0"/>
<path d="M386.163 408.25C383.665 422.068 368.302 430.858 351.861 427.88C335.414 424.908 324.107 411.296 326.611 397.478C327.022 395.204 327.782 393.067 328.835 391.098V388.744C328.835 388.744 343.232 341.396 349.325 323.535C355.418 305.68 363.722 287.402 363.722 287.402C363.722 287.402 352.302 271.105 336.833 253.088C321.359 235.071 316.144 219.746 316.144 219.746L348.216 190.776C348.216 190.776 355.835 207.123 373.073 225.041C390.305 242.964 404.633 253.087 404.633 253.087C404.633 253.087 371.747 313.985 363.586 340.151C360.346 350.543 357.25 364.373 354.708 377.269C356.74 377.281 358.814 377.468 360.907 377.848C377.354 380.819 388.661 394.432 386.163 408.25Z" fill="#F2F1F0"/>
<path d="M371.124 166.188C355.861 174.997 337.495 171.745 330.088 158.924C326.804 153.236 326.232 146.626 327.944 140.259C323.534 124.834 309.336 75.0138 307.759 66.3479C305.891 56.0684 305.891 56.0684 305.891 56.0684C305.891 56.0684 275.115 63.0396 249.647 67.7305C227.35 71.8359 201.54 76.2092 201.54 76.2092C201.54 76.2092 205.278 104.35 212.174 128.191C214.05 134.651 218.18 145.628 222.136 155.714C224.029 154.02 226.154 152.475 228.478 151.129C243.735 142.32 262.106 145.572 269.508 158.393C276.909 171.214 270.536 188.745 255.279 197.56C240.022 206.369 221.65 203.118 214.249 190.296C213.376 188.789 212.698 187.219 212.205 185.599L212.174 185.612C212.174 185.612 208.536 173.127 194.943 134.664C181.349 96.2008 166.31 17.4428 166.31 17.4428L320.002 0C320.002 0 321.497 30.6324 326.262 56.069C330.393 78.1227 337.526 103.877 342.535 120.854C343.114 120.474 343.706 120.106 344.317 119.757C359.574 110.948 377.945 114.2 385.347 127.021C392.748 139.842 386.381 157.373 371.124 166.188Z" fill="#F2F1F0"/>
<path d="M414.363 567.339C405.003 562.328 393.855 562.018 384.08 566.161C379.109 568.268 375.906 570.712 380.962 572.57C392.03 576.637 423.94 574.969 418.295 569.966C417.237 569.029 415.876 568.149 414.363 567.339Z" fill="#F2F1F0"/>
<path d="M392.451 570.913C392.451 570.913 390.888 533.917 371.088 509.947C351.287 485.978 326.276 452.108 346.076 446.377C365.877 440.645 390.888 468.783 399.746 498.483C408.604 528.184 398.357 570.912 398.357 570.912H392.451V570.913Z" fill="#3062EF"/>
<path d="M395.752 571.536C395.409 571.536 395.13 571.258 395.129 570.915C395.128 570.816 395.069 560.798 393.698 547.777C392.433 535.779 389.766 518.704 384.234 505.499C373.642 480.215 360.527 466.695 360.396 466.562C360.155 466.316 360.158 465.922 360.403 465.681C360.649 465.44 361.043 465.443 361.284 465.688C361.417 465.824 374.692 479.496 385.383 505.018C390.975 518.367 393.666 535.575 394.938 547.661C396.314 560.741 396.374 570.81 396.374 570.911C396.376 571.255 396.098 571.535 395.754 571.536C395.754 571.536 395.752 571.536 395.752 571.536Z" fill="#F4F4F4"/>
<path d="M405.233 570.913C405.233 570.913 406.493 541.088 422.456 521.764C438.419 502.44 458.582 475.135 442.62 470.515C426.657 465.894 406.493 488.578 399.352 512.522C392.211 536.466 400.473 570.912 400.473 570.912H405.233V570.913Z" fill="#8094F9"/>
<path d="M402.573 571.536C402.573 571.536 402.572 571.536 402.571 571.536C402.227 571.535 401.949 571.254 401.95 570.91C401.951 570.83 401.998 562.705 403.109 552.155C404.135 542.404 406.307 528.518 410.82 517.743C419.448 497.147 430.166 486.107 430.274 485.998C430.514 485.752 430.908 485.749 431.155 485.991C431.399 486.232 431.403 486.626 431.162 486.872C431.056 486.979 420.497 497.866 411.969 518.224C403.436 538.593 403.198 570.594 403.196 570.914C403.195 571.258 402.916 571.536 402.573 571.536Z" fill="#F4F4F4"/>
<path d="M324.487 132.404V141.935L321.497 139.394V134.204C321.497 134.204 318.475 30.6325 226.871 30.6325C144.512 30.6325 128.321 136.391 128.321 136.391L129.623 137.998L128.234 138.908L124.789 134.666C124.789 134.666 141.528 25.3379 226.666 25.3379C321.36 25.3373 324.487 132.404 324.487 132.404Z" fill="#8892C6"/>
<path d="M321.497 134.204V139.394L308.309 128.192C308.309 128.192 297.637 42.7808 227.084 42.7808C164.368 42.7808 144.594 128.192 144.594 128.192L129.623 137.998L128.321 136.391C128.321 136.391 144.513 30.6326 226.871 30.6326C318.475 30.6326 321.497 134.204 321.497 134.204Z" fill="#6C7ABC"/>
<path d="M177.808 171.302C184.716 198.067 181.042 222.151 169.605 225.103C158.168 228.055 143.292 208.757 136.385 181.992C129.477 155.227 133.157 131.141 144.594 128.19C156.031 125.238 170.901 144.536 177.808 171.302Z" fill="#152E72"/>
<path d="M165.659 198.035C171.189 196.608 172.964 184.963 169.625 172.026C166.286 159.088 159.097 149.757 153.568 151.184C148.039 152.611 146.263 164.256 149.602 177.194C152.941 190.131 160.13 199.462 165.659 198.035Z" fill="#36305C"/>
<path d="M169.605 225.103C169.605 225.103 162.86 228.112 153.503 229.226C153.497 229.228 153.485 229.231 153.477 229.226C149.038 229.999 144.126 227.547 139.389 222.703C132.042 215.18 125.108 201.894 120.996 185.963C116.886 170.038 116.52 155.057 119.32 144.916L119.318 144.91C121.102 138.407 124.191 133.898 128.418 132.402C128.447 132.388 128.477 132.38 128.506 132.367C137.233 128.815 144.593 128.189 144.593 128.189C137.753 129.954 133.686 139.278 133.003 152.213C132.539 160.909 133.608 171.237 136.384 181.992C139.16 192.747 143.221 202.302 147.836 209.688C154.694 220.677 162.764 226.869 169.605 225.103Z" fill="#8892C6"/>
<path d="M119.321 144.916C116.521 155.058 116.886 170.039 120.997 185.964C125.108 201.895 132.043 215.18 139.389 222.704C137.884 223.774 136.239 224.559 134.454 225.02C121.502 228.362 106.394 213.223 100.71 191.199C95.0261 169.176 100.922 148.615 113.873 145.273C115.658 144.813 117.483 144.702 119.319 144.91L119.321 144.916Z" fill="#FFBC48"/>
<path d="M275.096 171.302C268.188 198.067 271.862 222.151 283.299 225.103C294.737 228.055 309.612 208.757 316.519 181.992C323.427 155.227 319.747 131.141 308.31 128.19C296.873 125.238 282.003 144.536 275.096 171.302Z" fill="#152E72"/>
<path d="M303.317 177.187C306.656 164.249 304.881 152.605 299.351 151.178C293.822 149.751 286.633 159.082 283.294 172.019C279.955 184.956 281.731 196.601 287.26 198.028C292.789 199.455 299.978 190.124 303.317 177.187Z" fill="#36305C"/>
<path d="M283.299 225.103C283.299 225.103 290.044 228.112 299.401 229.226C299.407 229.228 299.419 229.231 299.426 229.226C303.866 229.999 308.777 227.547 313.515 222.703C320.861 215.18 327.796 201.894 331.907 185.963C336.017 170.038 336.383 155.057 333.583 144.916L333.585 144.91C331.802 138.407 328.712 133.898 324.485 132.402C324.457 132.388 324.426 132.38 324.398 132.367C315.67 128.815 308.31 128.189 308.31 128.189C315.151 129.954 319.217 139.278 319.9 152.213C320.365 160.909 319.295 171.237 316.519 181.992C313.744 192.747 309.682 202.302 305.068 209.688C298.21 220.677 290.14 226.869 283.299 225.103Z" fill="#8892C6"/>
<path d="M333.583 144.916C336.383 155.058 336.017 170.039 331.907 185.964C327.795 201.895 320.86 215.18 313.514 222.704C315.02 223.774 316.664 224.559 318.45 225.02C331.401 228.362 346.51 213.223 352.194 191.199C357.877 169.176 351.981 148.615 339.031 145.273C337.245 144.813 335.421 144.702 333.585 144.91L333.583 144.916Z" fill="#FFBC48"/>
<path d="M419.839 214.056C418.837 217.867 413.861 219.867 408.728 218.52C404.498 217.413 401.481 214.384 401.1 211.226C401.084 211.084 401.068 210.949 401.068 210.808L401.538 208.328L406.707 181.234L381.535 176.153L376.021 200.025C377.347 199.916 378.767 200.031 380.198 200.407C385.335 201.749 388.688 205.931 387.691 209.748C386.688 213.559 381.717 215.554 376.58 214.207C372.022 213.017 368.862 209.591 368.91 206.166C368.91 206.161 368.91 206.156 368.915 206.15L369.291 204.255L377.233 164.369L415.6 171.501L408.661 204.308C409.841 204.256 411.089 204.386 412.347 204.715C417.484 206.061 420.836 210.244 419.839 214.056Z" fill="#1E43C6"/>
<path d="M457.845 233.835C456.848 237.647 451.871 239.647 446.734 238.299C441.596 236.953 438.243 232.77 439.241 228.958C439.341 228.582 439.476 228.222 439.648 227.882C439.648 227.882 439.648 227.882 439.648 227.877L444.933 200.219L427.723 196.747L429.868 186.027L453.819 190.481L446.708 224.086C447.877 224.039 449.11 224.17 450.352 224.493C455.49 225.842 458.847 230.024 457.845 233.835Z" fill="#FFBC48"/>
<path d="M38.1825 225.062C39.185 228.874 44.1608 230.874 49.2936 229.526C53.5232 228.42 56.5412 225.391 56.9219 222.232C56.9376 222.091 56.9534 221.955 56.9534 221.815L56.4836 219.334L51.3145 192.24L76.4868 187.16L82.0008 211.032C80.6746 210.922 79.2544 211.037 77.8239 211.413C72.6863 212.755 69.3337 216.938 70.3308 220.754C71.3334 224.566 76.3043 226.561 81.442 225.214C86.0001 224.023 89.1593 220.598 89.112 217.173C89.112 217.167 89.112 217.162 89.1066 217.157L88.7308 215.262L80.7892 175.375L42.4218 182.508L49.3609 215.314C48.1807 215.262 46.9327 215.392 45.6744 215.721C40.5373 217.068 37.1854 221.251 38.1825 225.062Z" fill="#1E43C6"/>
<path d="M0.176982 244.842C1.17408 248.654 6.15047 250.654 11.2881 249.306C16.4257 247.959 19.7783 243.777 18.7806 239.965C18.6812 239.589 18.5454 239.229 18.3733 238.889C18.3733 238.889 18.3733 238.889 18.3733 238.884L13.0889 211.226L30.299 207.753L28.1533 197.034L4.20235 201.488L11.3142 235.093C10.1443 235.045 8.91204 235.176 7.66946 235.5C2.53183 236.848 -0.825571 241.031 0.176982 244.842Z" fill="#FFBC48"/>
<path d="M335.138 547.562L297.154 532.449C297.154 532.449 297.154 529.539 297.167 526.219C297.18 522.68 299.398 520.039 299.398 520.039L315.751 520.818C315.751 520.818 318.032 521.846 321.065 523.428C322.548 524.2 324.211 525.104 325.881 526.088C325.887 526.088 325.887 526.088 325.887 526.088C329.345 528.119 332.821 530.467 334.753 532.654C337.388 535.632 338.696 540.435 339.338 544.149C339.748 546.541 337.394 548.459 335.138 547.562Z" fill="#FFBC48"/>
<path d="M325.881 526.088C325.719 526.094 322.747 526.206 320.529 527.671C318.243 529.178 317.414 531.77 316.947 529.49C316.479 527.203 317.813 524.537 321.065 523.428C322.547 524.2 324.211 525.104 325.881 526.088Z" fill="#F9A935"/>
<path d="M239.408 551.826L276.33 534.279C276.33 534.279 276.141 531.376 275.913 528.063C275.671 524.533 273.286 522.041 273.286 522.041L257.018 523.88C257.018 523.88 254.809 525.053 251.884 526.829C250.455 527.697 248.854 528.706 247.252 529.796C247.246 529.797 247.246 529.797 247.246 529.797C243.927 532.048 240.611 534.617 238.825 536.925C236.388 540.068 235.395 544.945 234.996 548.693C234.741 551.106 237.216 552.868 239.408 551.826Z" fill="#FFBC48"/>
<path d="M247.252 529.796C247.414 529.792 250.387 529.711 252.695 531.028C255.075 532.384 256.07 534.916 256.388 532.61C256.706 530.299 255.202 527.724 251.885 526.829C250.456 527.696 248.854 528.706 247.252 529.796Z" fill="#F9A935"/>
<path d="M314.457 411.06L315.751 520.818C315.751 520.818 313.57 522.53 307.964 522.686C302.357 522.842 299.398 520.039 299.398 520.039L291.528 417.222L300.695 408.887L314.457 411.06Z" fill="#DBDEF3"/>
<path d="M251.186 414.27L257.018 523.88C257.018 523.88 259.305 525.448 264.911 525.239C270.517 525.031 273.287 522.041 273.287 522.041L274.467 418.931L264.778 411.209L251.186 414.27Z" fill="#DBDEF3"/>
<path d="M316.961 333.309C316.961 333.309 323.23 348.042 327.384 361.125C331.537 374.208 336.832 405.15 336.832 405.15C336.591 405.183 316.585 416.363 290.628 418.44C269.084 420.164 251.787 413.745 251.787 413.745L231.236 353.857C231.236 353.857 235.805 326.446 236.428 326.238C237.051 326.03 304.541 316.478 304.541 316.478L316.961 333.309Z" fill="#FFBC48"/>
<path d="M359.955 135.728C359.955 135.728 357.988 132.775 356.198 131.295C355.214 130.482 353.807 129.505 352.739 128.789C352.16 128.401 352.334 127.506 353.017 127.369C354.715 127.026 357.173 126.685 358.378 127.257C360.325 128.181 362.716 129.195 362.716 129.195L363.05 132.23L359.955 135.728Z" fill="#A2B1F9"/>
<path d="M317.84 204.694C317.84 204.694 336.105 197.695 340.674 192.503C345.242 187.312 361.648 142.872 361.648 142.872C361.648 142.872 358.845 136.279 360.402 131.918C361.96 127.557 370.837 125.688 376.288 128.803C381.739 131.918 383.92 137.619 382.83 141.933C381.739 146.247 374.108 146.715 373.329 148.272C372.55 149.83 363.673 179.71 359.935 190.779C356.197 201.848 349.344 210.571 344.36 214.62C339.376 218.669 326.191 225.044 326.191 225.044L315.547 208.857L317.84 204.694Z" fill="#DBDEF3"/>
<path d="M380.623 131.936C378.833 129.422 376.118 127.719 373.111 127.029C369.853 126.281 365.385 125.708 364.461 127.887C362.973 131.398 362.766 135.4 368.825 139.131C374.883 142.863 379.698 144.385 381.429 141.376C383.545 137.701 382.348 134.359 380.623 131.936Z" fill="#CAD2FC"/>
<path fill-rule="evenodd" clip-rule="evenodd" d="M299.213 193.721C299.931 194.824 300.506 195.706 300.751 196.397C303.904 205.256 300.521 207.032 289.936 211.972C289.83 212.022 289.724 212.072 289.618 212.121C279.314 216.906 267.789 218.345 256.656 216.264C255.971 216.139 255.291 216.002 254.613 215.847C250.432 214.9 246.258 213.828 243.124 212.75C235.287 210.053 233.643 205.106 236.247 198.926C236.795 197.618 237.536 196.254 238.452 194.84C244.42 185.613 241.567 169.453 241.567 169.453C241.255 149.673 253.248 140.795 264.306 139.082C272.442 137.824 279.47 143.58 282.616 146.714L282.653 146.752C283.27 147.369 283.737 147.879 284.024 148.209C284.072 148.252 284.108 148.3 284.145 148.348L284.148 148.353L284.166 148.373C284.228 148.447 284.291 148.522 284.354 148.602C284.373 148.614 284.379 148.627 284.379 148.627C284.379 148.627 287.469 148.937 290.521 153.567C294.054 158.911 295.449 165.664 294.216 173.296C292.565 183.515 296.741 189.926 299.213 193.721ZM278.287 199.773C281.688 196.472 285.432 192.235 286.983 188.348C287.98 185.837 289.444 179.67 289.837 172.611C289.837 172.611 284.866 158.239 272.25 156.837C259.634 155.436 256.364 163.023 254.183 170.076C252.003 177.128 247.38 178.63 247.38 178.63C248.788 183.657 250.701 188.03 252.377 190.778C255.261 195.512 259.21 198.907 262.786 201.25C267.671 204.439 274.094 203.835 278.287 199.773Z" fill="#3C4156"/>
<path d="M284.354 148.601C284.286 148.514 284.217 148.434 284.149 148.352C284.255 148.471 284.323 148.558 284.354 148.601Z" fill="#0A0189"/>
<path d="M250.932 362.294C250.932 362.294 247.434 342.851 254.494 342.436C261.555 342.02 267.146 340.543 267.146 340.543L260.309 331.014C260.309 331.014 247.434 329.561 246.187 328.937C244.941 328.314 237.78 328.314 238.349 331.222C238.919 334.129 239.334 347.42 239.957 348.25C240.581 349.081 250.932 362.294 250.932 362.294Z" fill="#F9A935"/>
<path d="M289.837 172.611C289.444 179.67 287.98 185.837 286.983 188.348C285.432 192.236 281.688 196.472 278.287 199.774C274.094 203.835 267.671 204.44 262.786 201.25C259.21 198.907 255.261 195.512 252.377 190.778C250.701 188.03 248.788 183.657 247.38 178.63C247.38 178.63 252.003 177.128 254.183 170.076C256.364 163.023 259.634 155.436 272.25 156.837C284.865 158.239 289.837 172.611 289.837 172.611Z" fill="#0A0189"/>
<path d="M305.255 262.415C304.097 264.446 303.199 266.508 303.555 269.361C304.334 275.591 304.334 282.17 306.981 290.717C309.629 299.264 319.597 333.217 319.597 333.217C319.597 333.217 302.465 341.154 282.217 341.16C263.422 341.166 253.08 338.637 248.433 337.042C246.302 336.313 245.368 335.784 245.368 335.784L239.736 278.687C239.736 278.687 240.428 277.129 241.119 275.092C241.849 272.943 242.583 270.258 242.503 268.314C242.347 264.533 238.141 260.328 237.052 253.786C236.578 250.946 236.883 246.56 235.531 242.921C234.983 241.433 234.161 240.074 232.896 238.991C228.535 235.253 223.969 209.711 223.969 209.711L243.954 213.554C243.96 213.554 243.973 213.56 243.979 213.56L251.013 214.912C251.025 214.912 251.038 214.918 251.05 214.918L256.75 216.014L263.697 214.943L265.161 214.718L284.785 210.881C284.785 210.881 286.685 211.162 292.497 209.292C298.31 207.424 316.277 204.296 316.277 204.296C316.277 204.296 320.638 207.529 323.647 214.276C326.656 221.029 326.245 229.539 326.245 229.539C326.245 229.539 312.901 235.719 311.031 239.457C309.163 243.195 309.405 249.855 308.851 254.097C308.396 257.586 306.696 259.928 305.331 262.296C305.305 262.334 305.28 262.377 305.255 262.415Z" fill="#4E5A8B"/>
<path d="M265.085 218.046C265.085 218.046 247.642 224.693 242.241 232.997C236.845 241.302 237.051 252.777 237.051 252.777C236.578 249.936 236.882 245.551 235.531 241.912C235.761 240.068 236.067 238.305 236.428 236.636C238.564 226.78 251.866 217.629 256.731 215.018C256.806 215.031 256.881 215.043 256.918 215.049C256.887 215.036 256.837 215.024 256.749 215.005L263.696 213.934C264.487 216.245 265.085 218.046 265.085 218.046Z" fill="#444F82"/>
<path d="M258.44 197.94C258.44 197.94 258.855 201.847 258.933 206.675C259.011 211.503 258.933 214.541 258.933 214.541C258.933 214.541 260.024 222.25 265.708 227.779C267.729 229.745 269.711 231.386 271.426 232.685C274.393 234.932 278.634 234.144 280.62 230.996C282.48 228.048 284.395 224.26 284.787 220.693C285.318 215.855 284.787 209.869 284.787 209.869C284.787 209.869 282.189 199.435 282.086 195.774C281.983 192.113 277.467 190.778 277.467 190.778L258.44 197.94Z" fill="#C9CDE7"/>
<path d="M180.915 541.725C180.915 541.725 171.135 546.864 163.418 552.493C155.791 558.056 158.554 567.646 158.554 567.646C158.554 567.646 158.866 570.605 169.968 571.067C184.956 571.69 202.928 555.15 202.928 555.15C202.928 555.15 203.571 551.774 203.122 547.827C202.674 543.879 200.565 541.725 200.565 541.725L186.298 539.213L180.915 541.725Z" fill="#3C4156"/>
<path d="M248.54 537.618C248.54 537.618 258.506 542.386 266.429 547.722C274.259 552.996 271.857 562.682 271.857 562.682C271.857 562.682 271.657 565.651 260.58 566.529C245.625 567.714 227.045 551.86 227.045 551.86C227.045 551.86 226.277 548.511 226.577 544.549C226.877 540.587 228.903 538.356 228.903 538.356L243.066 535.31L248.54 537.618Z" fill="#3C4156"/>
<path d="M172.606 421.009L178.217 543.197C178.217 543.197 179.58 544.492 187.834 544.492C196.089 544.492 200.606 541.688 200.606 541.688V423.017L175.167 402.865L172.606 421.009Z" fill="#D3D5E7"/>
<path d="M252.289 419.651L251.292 538.988C251.292 538.988 249.978 540.332 241.729 540.641C233.48 540.951 228.861 538.319 228.861 538.319L224.41 419.733L249.075 398.64L251.788 413.744C252.138 415.694 252.306 417.672 252.289 419.651Z" fill="#D3D5E7"/>
<path d="M165.996 339.196C165.996 339.196 163.539 362.371 162.708 378.153C161.877 393.936 162.708 416.363 162.708 416.363C162.708 416.363 167.484 421.97 187.419 423.216C207.354 424.462 215.454 418.855 215.454 418.855L214 383.967L218.361 418.647C218.361 418.647 226.876 421.347 240.581 418.232C254.287 415.117 260.309 408.679 260.309 408.679L245.368 334.773L198.841 328.937L165.996 339.196Z" fill="#FDC667"/>
<path d="M191.137 345.73C191.137 345.73 199.827 350.43 205.278 357.595C209.01 362.5 212.962 378.361 212.962 378.361L210.246 345.73L197.595 338.075L191.137 345.73Z" fill="#F9A935"/>
<path d="M236.428 236.636C235.474 241.034 234.92 246.055 234.995 251.6C235.126 260.571 236.92 270.919 241.412 282.214C248.682 300.486 250.133 332.258 250.133 332.258C250.133 332.258 228.952 344.718 205.484 346.176C182.022 347.628 162.087 337.454 162.087 337.454C162.087 337.454 160.629 313.363 162.087 299.658C162.511 295.658 162.635 292.033 162.517 288.699C180.615 287.267 197.273 283.747 197.18 284.395C197.18 284.395 201.746 289.273 209.64 289.69C217.533 290.108 220.648 283.255 220.025 276.812C219.401 270.377 215.663 266.639 210.262 266.016C204.861 265.393 200.712 271.205 195.105 270.794C191.728 270.545 180.433 269.312 170.21 268.358C165.625 267.928 161.252 267.56 157.912 267.349C155.171 259.992 154.611 256.048 154.611 256.048L138.618 266.639C138.618 266.639 138.32 266.552 137.79 266.272C136.245 265.456 132.762 263.026 129.274 256.516C127.081 252.429 126.501 248.099 126.501 244.654C126.501 240.755 127.248 237.982 127.248 237.982C127.248 237.982 144.536 226.457 158.086 218.669C171.637 210.882 177.972 208.39 177.972 208.39L205.34 201.419C205.34 201.419 214.828 200.397 227.499 199.357C230.521 199.107 233.486 198.976 236.246 198.927C234.165 203.861 235.199 208.365 239.803 210.963C240.962 211.623 242.352 212.159 243.977 212.552C247.678 213.443 252.568 214.059 256.749 215.006C256.836 215.025 256.886 215.037 256.917 215.05C256.88 215.044 256.805 215.031 256.73 215.019C251.866 217.629 238.565 226.78 236.428 236.636Z" fill="#3C4156"/>
<path d="M209.64 289.689C201.746 289.271 197.18 284.394 197.18 284.394C197.273 283.746 180.615 287.266 162.517 288.699C162.467 287.066 162.349 285.503 162.186 284.001C161.538 278.064 160.105 273.086 158.349 268.508C158.199 268.109 158.05 267.723 157.913 267.349C161.252 267.56 165.625 267.928 170.211 268.358C180.434 269.311 191.729 270.545 195.106 270.794C200.712 271.205 204.861 265.393 210.263 266.016C215.664 266.639 219.402 270.377 220.025 276.812C220.648 283.254 217.533 290.107 209.64 289.689Z" fill="#1E43C6"/>
<path d="M251.012 213.902C248.52 213.467 246.059 213.049 243.979 212.551L251.012 213.902Z" fill="#163FB2"/>
<path d="M176.878 198.042C176.878 198.042 177.867 204.236 177.971 208.389C178.075 212.542 177.971 215.242 177.971 215.242C177.971 215.242 178.906 222.926 183.682 229.052C185.895 231.89 188.844 234.127 191.371 235.71C194.237 237.506 198.025 236.607 199.815 233.737C202.336 229.694 205.625 223.819 206.724 219.136C208.593 211.175 206.724 206.832 206.724 206.832C206.724 206.832 203.359 194.197 203.333 191.585C203.306 188.973 188.458 193.542 188.458 193.542L176.878 198.042Z" fill="#C6C7D7"/>
<path d="M206.724 184.161C206.724 184.167 206.724 184.167 206.724 184.167C205.475 188.1 203.708 191.571 201.834 194.512C196.511 202.866 185.135 204.863 177.3 198.803C174.317 196.497 171.373 193.436 168.99 189.388C168.223 188.086 167.519 186.828 166.878 185.613C166.878 185.613 166.878 185.607 166.878 185.6C166.803 185.058 164.405 167.484 170.08 161.042C175.843 154.5 183.786 163.066 191.573 162.288C194.675 161.983 198.42 160.781 201.853 158.949C202.363 159.354 203.466 160.575 204.812 164.157C206.656 169.079 206.724 183.8 206.724 184.161Z" fill="#D3D5E7"/>
<path d="M212.025 147.336C211.876 148.72 211.377 150.065 210.617 151.336C209.876 152.582 208.886 153.759 207.721 154.85L208.393 155.123C208.393 155.123 209.315 168.866 208.082 178.068C207.789 180.261 207.322 182.292 206.723 184.161C206.723 183.8 206.655 169.079 204.811 164.157C203.465 160.574 202.363 159.354 201.852 158.949C198.419 160.781 194.675 161.983 191.572 162.288C183.785 163.067 175.842 154.501 170.079 161.042C164.404 167.483 166.803 185.058 166.877 185.6C166.877 185.606 166.877 185.613 166.877 185.613C166.877 185.613 158.884 173.976 158.866 161.821C158.847 150.14 166.03 145.885 166.03 145.885C166.03 145.885 175.375 131.917 186.745 131.917C194.687 131.917 198.631 139.238 204.238 139.655C207.571 139.898 209.64 136.278 209.64 136.278C209.64 136.278 212.91 139.069 212.025 147.336Z" fill="#3C4156"/>
<path d="M197.18 284.394C197.18 284.394 175.892 291.764 169.768 292.804C163.645 293.844 162.087 299.657 162.087 299.657C162.716 293.701 162.685 288.562 162.186 284.001C166.915 283.416 174.26 282.487 174.752 282.419C175.481 282.319 197.18 284.394 197.18 284.394Z" fill="#31364A"/>
<path d="M202.508 268.464C202.508 268.464 205.201 265.548 205.278 262.745C205.329 260.933 205.184 259.349 205.075 258.455C205.033 258.104 205.404 257.848 205.714 258.018C206.539 258.47 207.836 259.437 208.471 261.265C209.444 264.069 209.015 265.46 209.561 265.971C210.106 266.483 211.197 268.157 211.197 268.157L208.432 269.909L202.508 268.464Z" fill="#BCBECD"/>
<path d="M209.64 289.689C201.746 289.271 197.18 284.394 197.18 284.394C197.273 283.746 180.615 287.266 162.517 288.699C146.001 290.013 128.29 289.59 121.019 282.681C98.5544 261.331 126.502 244.654 126.502 244.654C126.502 248.099 127.081 252.428 129.274 256.515C131.205 260.116 133.13 262.471 134.725 263.985C136.021 265.218 137.099 265.91 137.79 266.271L136.501 267.442C136.189 267.729 136.419 268.246 136.843 268.202C139.896 267.872 147.621 267.118 153.957 267.18C154.256 267.186 154.586 267.193 154.941 267.205C155.116 267.211 155.29 267.218 155.477 267.224C155.67 267.23 155.87 267.243 156.075 267.249C158.823 267.38 162.641 267.678 166.828 268.052C167.376 268.102 167.937 268.152 168.504 268.202C169.065 268.252 169.638 268.301 170.211 268.358C180.434 269.311 191.729 270.545 195.106 270.794C200.712 271.205 204.861 265.393 210.263 266.016C215.664 266.639 219.402 270.377 220.025 276.812C220.648 283.254 217.533 290.107 209.64 289.689Z" fill="#D3D5E7"/>
<path d="M170.21 268.358C162.137 267.679 146.612 271.018 136.905 272.607C127.093 274.208 134.725 263.985 134.725 263.985C136.021 265.218 137.099 265.91 137.79 266.271L136.501 267.442C136.189 267.729 136.419 268.246 136.843 268.202C139.895 267.872 147.621 267.119 153.957 267.18C154.256 267.186 154.586 267.193 154.941 267.205C155.116 267.211 155.29 267.218 155.477 267.224C155.67 267.23 155.87 267.243 156.075 267.249C158.823 267.38 162.641 267.679 166.828 268.053C167.383 268.102 167.937 268.152 168.504 268.202C169.064 268.252 169.637 268.302 170.21 268.358Z" fill="#BCBECD"/>
<path d="M284.024 148.208C283.738 147.878 283.27 147.368 282.654 146.751C283.139 147.212 283.601 147.698 284.024 148.208Z" fill="#DBDEF3"/>
<path d="M289.837 172.611C289.444 179.67 287.98 185.837 286.983 188.348C285.432 192.236 281.688 196.472 278.287 199.774C274.094 203.835 267.671 204.44 262.786 201.25C259.21 198.907 255.261 195.512 252.377 190.778C250.701 188.03 248.788 183.657 247.38 178.63C247.38 178.63 252.003 177.128 254.183 170.076C256.364 163.023 259.634 155.436 272.25 156.837C284.865 158.239 289.837 172.611 289.837 172.611Z" fill="#DBDEF3"/>
<path d="M284.024 148.208C283.738 147.878 283.27 147.368 282.654 146.751C283.139 147.212 283.601 147.698 284.024 148.208Z" fill="#0A0189"/>
<path d="M308.85 253.089C308.395 256.578 306.694 258.92 305.33 261.287C305.305 261.325 305.28 261.369 305.255 261.406C304.47 262.626 302.732 263.785 296.471 263.761C290.073 263.73 286.423 261.835 286.423 261.835C286.423 261.835 297.256 262.446 301.916 259.786C307.448 256.634 308.85 253.089 308.85 253.089Z" fill="#444F82"/>
<path d="M386.102 54.461V92.2598C386.102 94.2207 384.512 95.81 382.551 95.81H344.753C342.792 95.81 341.203 94.2207 341.203 92.2598L335.715 90.8439C334.633 90.5645 334.313 89.1831 335.162 88.4563L341.203 83.2829V54.461C341.203 52.5002 342.792 50.9109 344.753 50.9109H382.552C384.512 50.9109 386.102 52.5002 386.102 54.461Z" fill="#FFBC48"/>
<path d="M363.046 68.6264C363.39 68.2652 363.688 67.8815 364.054 67.579C365.596 66.3019 367.351 65.96 369.23 66.6341C371.095 67.3032 372.224 68.6719 372.615 70.6218C372.899 72.0432 372.499 73.3307 371.783 74.5436C371.016 75.8431 369.995 76.9299 368.883 77.9343C367.151 79.4975 365.243 80.8171 363.226 81.9833C363.13 82.0391 363.056 82.0633 362.945 81.9978C360.467 80.5425 358.134 78.8962 356.135 76.8129C355.21 75.848 354.41 74.7933 353.871 73.5531C352.562 70.5352 354.394 67.0571 357.641 66.4268C359.793 66.0091 361.574 66.7292 362.926 68.4707C362.969 68.527 363.013 68.5828 363.046 68.6264Z" fill="#3062EF"/>
</svg>
