<svg width="213" height="72" viewBox="0 0 213 72" fill="none" xmlns="http://www.w3.org/2000/svg">
<g filter="url(#filter0_d)">
<path d="M52.5919 14.4556C48.169 10.0376 42.282 7.6001 36.0289 7.6001C32.1754 7.6001 28.3524 8.55479 24.9768 10.3626C24.3057 10.7181 24.0617 11.5509 24.4176 12.2212C24.7734 12.8915 25.6072 13.1353 26.2782 12.7798C29.2573 11.1853 32.633 10.3423 36.0391 10.3423C42.7395 10.3423 48.7078 13.5415 52.4902 18.4978C51.1176 18.122 49.8161 17.4212 48.7078 16.4563C45.1797 13.3993 40.6856 11.7134 36.0289 11.7134C31.3722 11.7134 26.8781 13.3993 23.3601 16.4563C22.2417 17.4313 20.9403 18.122 19.5575 18.4978C20.5539 17.1978 21.713 15.9993 23.0145 14.9329C23.6042 14.4556 23.6957 13.5923 23.2178 13.0032C22.7399 12.4142 21.8757 12.3228 21.286 12.8001C15.765 17.2688 12.5927 23.9009 12.5927 30.9899V41.6845C12.5927 47.961 17.707 53.0696 23.9905 53.0696H24.8039C25.231 53.8618 26.0749 54.3899 27.0306 54.3899H29.6437C31.0468 54.3899 32.1856 53.2524 32.1856 51.8509V31.2032C32.1856 29.8017 31.0468 28.6642 29.6437 28.6642H27.0306C25.9427 28.6642 25.0175 29.3446 24.6514 30.3095H23.9905C20.5336 30.3095 17.4325 31.8532 15.338 34.2907V31.0001C15.338 27.6587 16.131 24.4392 17.6155 21.5649C20.3709 21.4431 23.0246 20.3767 25.1598 18.5181C28.1694 15.8978 32.0331 14.4556 36.0289 14.4556C40.0248 14.4556 43.8783 15.8978 46.898 18.5181C49.023 20.3665 51.6768 21.4329 54.4322 21.5548C55.8963 24.3884 56.7199 27.5978 56.7199 30.9899V34.2806C54.6254 31.8431 51.5243 30.2993 48.0673 30.2993H47.4064C47.0404 29.3446 46.1151 28.654 45.0272 28.654L42.4243 28.654C41.0212 28.654 39.8824 29.7915 39.8824 31.1931V51.8509C39.8824 53.2524 41.0212 54.3899 42.4243 54.3899H45.0272C45.9829 54.3899 46.8268 53.8517 47.2539 53.0696H48.0673C54.3508 53.0696 59.4651 47.961 59.4651 41.6845V31.0001C59.4549 24.754 57.0147 18.8735 52.5919 14.4556ZM27.2442 31.4064H29.4403L29.4403 51.6579H27.2442V31.6806V31.4064ZM24.0007 33.0517H24.4989V50.3274H24.0007C19.2321 50.3274 15.3481 46.4478 15.3481 41.6845C15.3481 36.9212 19.2321 33.0517 24.0007 33.0517ZM42.6175 31.4064L44.8137 31.4064V31.6806V51.6579H42.6175V31.4064ZM48.0571 50.3376H47.5589V33.0517H48.0571C52.8257 33.0517 56.7097 36.9314 56.7097 41.6946C56.7097 46.4579 52.8257 50.3376 48.0571 50.3376Z" fill="white"/>
<path d="M72.3298 46V25.1071H77.2663L83.2001 37.5231L89.1838 25.1071H94.0704V46H89.2336V35.379L85.7432 42.709H80.7069L77.1167 35.3291V46H72.3298ZM107.233 43.2076C108.562 43.2076 109.227 42.7422 109.227 41.8114V25.1071H114.064V42.2602C114.064 43.3905 113.482 44.3046 112.319 45.0027C111.189 45.6676 109.809 46 108.18 46H104.091C101.532 46 99.7366 45.2853 98.706 43.8559C98.3736 43.3905 98.2074 42.8586 98.2074 42.2602V25.1071H102.994V41.8114C102.994 42.7422 103.676 43.2076 105.039 43.2076H107.233ZM128.922 37.2738C128.922 36.343 128.24 35.8776 126.877 35.8776H123.936C121.343 35.8776 119.547 35.1795 118.55 33.7834C118.218 33.318 118.052 32.7861 118.052 32.1877V28.8468C118.052 27.7166 118.617 26.819 119.747 26.1542C120.91 25.4561 122.307 25.1071 123.936 25.1071H127.825C129.454 25.1071 130.833 25.4395 131.964 26.1043C133.127 26.7692 133.709 27.6834 133.709 28.8468V30.8913H128.922V29.2956C128.922 28.3648 128.24 27.8994 126.877 27.8994H124.883C123.52 27.8994 122.838 28.3648 122.838 29.2956V31.6891C122.838 32.6864 123.52 33.1518 124.883 33.0853H127.825C129.454 33.0853 130.833 33.4177 131.964 34.0825C133.127 34.7474 133.709 35.6616 133.709 36.8251V42.2602C133.709 43.4237 133.11 44.3379 131.914 45.0027C130.817 45.6676 129.454 46 127.825 46H123.936C121.376 46 119.581 45.2853 118.55 43.8559C118.218 43.3905 118.052 42.8586 118.052 42.2602V39.4678H122.838V41.8114C122.838 42.7422 123.52 43.2076 124.883 43.2076H126.877C128.24 43.2076 128.922 42.7422 128.922 41.8114V37.2738ZM137.901 46V25.1071H142.688V46H137.901ZM154.935 43.2076C156.265 43.2076 156.93 42.7422 156.93 41.8114V39.4678H161.717V42.2602C161.717 43.4237 161.118 44.3379 159.922 45.0027C158.825 45.6676 157.478 46 155.883 46H152.542C149.982 46 148.187 45.2853 147.157 43.8559C146.824 43.3905 146.658 42.8586 146.658 42.2602V28.8468C146.658 27.7166 147.223 26.819 148.353 26.1542C149.517 25.4561 150.913 25.1071 152.542 25.1071H155.883C157.478 25.1071 158.841 25.4395 159.972 26.1043C161.135 26.7692 161.717 27.6834 161.717 28.8468V31.6392H156.93V29.2956C156.93 28.3648 156.265 27.8994 154.935 27.8994H153.489C152.126 27.8994 151.445 28.3648 151.445 29.2956V41.8114C151.445 42.7422 152.126 43.2076 153.489 43.2076H154.935ZM174.287 43.2076C175.616 43.2076 176.281 42.7422 176.281 41.8114V29.2956C176.281 28.3648 175.616 27.8994 174.287 27.8994H172.093C170.73 27.8994 170.048 28.3648 170.048 29.2956V41.8114C170.048 42.7422 170.73 43.2076 172.093 43.2076H174.287ZM165.261 28.8468C165.261 27.7166 165.826 26.819 166.957 26.1542C168.12 25.4561 169.516 25.1071 171.145 25.1071H175.234C177.794 25.1071 179.589 25.8218 180.619 27.2512C180.952 27.7166 181.118 28.2485 181.118 28.8468V42.2602C181.118 43.3905 180.536 44.3046 179.373 45.0027C178.242 45.6676 176.863 46 175.234 46H171.145C168.585 46 166.79 45.2853 165.76 43.8559C165.427 43.3905 165.261 42.8586 165.261 42.2602V28.8468ZM185.178 46V25.1071H190.114L197.594 37.8722V25.1569H202.431V46H197.394L189.965 33.4343V46H185.178Z" fill="white"/>
<ellipse cx="140.362" cy="19.7335" rx="3.03671" ry="3.03333" fill="white"/>
</g>
<defs>
<filter id="filter0_d" x="0" y="0" width="212.431" height="72" filterUnits="userSpaceOnUse" color-interpolation-filters="sRGB">
<feFlood flood-opacity="0" result="BackgroundImageFix"/>
<feColorMatrix in="SourceAlpha" type="matrix" values="0 0 0 0 0 0 0 0 0 0 0 0 0 0 0 0 0 0 127 0" result="hardAlpha"/>
<feOffset dy="5"/>
<feGaussianBlur stdDeviation="5"/>
<feColorMatrix type="matrix" values="0 0 0 0 0 0 0 0 0 0 0 0 0 0 0 0 0 0 0.1 0"/>
<feBlend mode="normal" in2="BackgroundImageFix" result="effect1_dropShadow"/>
<feBlend mode="normal" in="SourceGraphic" in2="effect1_dropShadow" result="shape"/>
</filter>
</defs>
</svg>
