<svg width="17" height="17" viewBox="0 0 17 17" fill="none" xmlns="http://www.w3.org/2000/svg">
<g clip-path="url(#clip0)">
<path d="M16.0617 17.0001C16.5798 17.0001 17 16.58 17 16.0618V0.938254C17 0.42002 16.5798 0 16.0617 0H0.938254C0.419953 0 0 0.42002 0 0.938254V16.0618C0 16.58 0.419953 17.0001 0.938254 17.0001H16.0617Z" fill="#395185"/>
<path d="M9.86486 17.0001V10.4168H12.0747L12.4055 7.85117H9.86486V6.21306C9.86486 5.47024 10.0712 4.96403 11.1364 4.96403L12.495 4.96343V2.66876C12.2599 2.63749 11.4535 2.56763 10.5153 2.56763C8.55646 2.56763 7.21545 3.76327 7.21545 5.95906V7.85117H5V10.4168H7.21545V17.0001H9.86486Z" fill="white"/>
</g>
<defs>
<clipPath id="clip0">
<rect width="17" height="17" rx="8.5" fill="white"/>
</clipPath>
</defs>
</svg>
