<?xml version="1.0" encoding="UTF-8" standalone="no"?>
<svg
   xmlns:dc="http://purl.org/dc/elements/1.1/"
   xmlns:cc="http://creativecommons.org/ns#"
   xmlns:rdf="http://www.w3.org/1999/02/22-rdf-syntax-ns#"
   xmlns:svg="http://www.w3.org/2000/svg"
   xmlns="http://www.w3.org/2000/svg"
   style="fill:none"
   id="svg856"
   version="1.1"
   viewBox="0 0 18.714193 16.464899"
   height="16.464899"
   width="18.714193">
  <metadata
     id="metadata862">
    <rdf:RDF>
      <cc:Work
         rdf:about="">
        <dc:format>image/svg+xml</dc:format>
        <dc:type
           rdf:resource="http://purl.org/dc/dcmitype/StillImage" />
        <dc:title></dc:title>
      </cc:Work>
    </rdf:RDF>
  </metadata>
  <defs
     id="defs860" />
  <path
     style="fill:#ffffff"
     id="path854"
     d="m 18.553205,3.7183702 c -0.1078,-0.4224 -0.2743,-0.82759 -0.4945,-1.20376 -0.2116,-0.39132 -0.4821,-0.74771 -0.802,-1.05664 -0.4639,-0.46260195 -1.0132,-0.83055695 -1.6174,-1.08338795 -1.2161,-0.499443 -2.5799,-0.499443 -3.796,0 -0.5711,0.241874 -1.0958,0.581313 -1.5506,1.00313795 l -0.0668,0.08025 -0.8687997,0.86939 -0.86882,-0.86939 -0.06683,-0.08025 c -0.45479,-0.42182495 -0.97945,-0.76126395 -1.55051,-1.00313795 -1.21614,-0.499443 -2.57994,-0.499443 -3.79608,0 -0.60418,0.252831 -1.15349,0.620786 -1.61734,1.08338795 -0.63441998,0.61771 -1.08351998,1.40067 -1.29654398,2.2604 -0.113327,0.4366 -0.16728,0.88649 -0.16039699623,1.33752 0,0.42399 0.0534659962,0.84665 0.16039699623,1.25726 0.112054,0.41469 0.273614,0.81437 0.481194,1.19039 0.22417,0.38656 0.49831998,0.74183 0.81534998,1.0566401 L 9.3571053,16.4649 17.256705,8.5601803 c 0.3168,-0.31164 0.5881,-0.6687601 0.802,-1.0566401 0.4341,-0.74218 0.6603,-1.5877 0.6549,-2.44765 0.0069,-0.45103 -0.047,-0.90093 -0.1604,-1.33752 z m -1.3366,2.18015 c -0.1601,0.61114 -0.4782,1.16932 -0.9223,1.6184 L 9.3304053,14.472 2.3664453,7.5169202 c -0.22693,-0.22869 -0.42449,-0.4848 -0.58812,-0.76239 -0.15397,-0.27462 -0.27511,-0.56642 -0.3609,-0.86938 -0.06849,-0.30292 -0.10433,-0.61232 -0.10693,-0.92289 0.00181,-0.31945 0.03766,-0.63779 0.10693,-0.94963 0.08328,-0.30384 0.20453,-0.59594 0.3609,-0.86939 0.16039,-0.28088 0.35822,-0.53501 0.58812,-0.76238 0.34338,-0.33901 0.74678,-0.61114 1.18962,-0.80251 0.89236,-0.35722 1.88786,-0.35722 2.78022,0 0.44109,0.18324 0.83941,0.45208 1.17625,0.78913 l 1.81787,1.8324 1.8177997,-1.8324 c 0.3366,-0.33765 0.7363,-0.60578 1.1763,-0.78913 0.8923,-0.35722 1.8878,-0.35722 2.7802,0 0.4424,0.19126 0.8461,0.46411 1.1896,0.80251 0.2326,0.22069 0.4277,0.47749 0.5747,0.76238 0.3096,0.54633 0.4709,1.16423 0.4679,1.79227 0.0182,0.32318 -0.0088,0.64731 -0.0802,0.96301 z" />
</svg>
