<svg width="20" height="17" viewBox="0 0 20 17" fill="none" xmlns="http://www.w3.org/2000/svg">
<path d="M19.3076 3.71837C19.1998 3.29597 19.0333 2.89078 18.8131 2.51461C18.6015 2.12329 18.331 1.7669 18.0111 1.45797C17.5472 0.995368 16.9979 0.627413 16.3937 0.374582C15.1776 -0.124861 13.8138 -0.124861 12.5977 0.374582C12.0266 0.616456 11.5019 0.955895 11.0471 1.37772L10.9803 1.45797L10.1115 2.32736L9.24268 1.45797L9.17585 1.37772C8.72106 0.955895 8.1964 0.616456 7.62534 0.374582C6.4092 -0.124861 5.0454 -0.124861 3.82926 0.374582C3.22508 0.627413 2.67577 0.995368 2.21192 1.45797C1.5775 2.07568 1.1284 2.85864 0.915376 3.71837C0.802049 4.15497 0.748096 4.60486 0.754979 5.05589C0.754979 5.47988 0.808445 5.90254 0.915376 6.31315C1.02743 6.72784 1.18899 7.12752 1.39657 7.50354C1.62074 7.8901 1.89489 8.24537 2.21192 8.56018L10.1115 16.4649L18.0111 8.56018C18.3279 8.24854 18.5992 7.89142 18.8131 7.50354C19.2472 6.76136 19.4734 5.91584 19.468 5.05589C19.4749 4.60486 19.421 4.15496 19.3076 3.71837ZM17.971 5.89852C17.8109 6.50966 17.4928 7.06784 17.0487 7.51692L10.0848 14.472L3.12084 7.51692C2.89391 7.28823 2.69635 7.03212 2.53272 6.75453C2.37875 6.47991 2.25761 6.18811 2.17182 5.88515C2.10333 5.58223 2.06749 5.27283 2.06489 4.96226C2.0667 4.64281 2.10255 4.32447 2.17182 4.01263C2.2551 3.70879 2.37635 3.41669 2.53272 3.14324C2.69311 2.86236 2.89094 2.60823 3.12084 2.38086C3.46422 2.04185 3.86762 1.76972 4.31046 1.57835C5.20282 1.22113 6.19832 1.22113 7.09068 1.57835C7.53177 1.76159 7.93009 2.03043 8.26693 2.36748L10.0848 4.19988L11.9026 2.36748C12.2392 2.02983 12.6389 1.7617 13.0789 1.57835C13.9712 1.22113 14.9667 1.22113 15.8591 1.57835C16.3015 1.76961 16.7052 2.04246 17.0487 2.38086C17.2813 2.60155 17.4764 2.85835 17.6234 3.14324C17.933 3.68957 18.0943 4.30747 18.0913 4.93551C18.1095 5.25869 18.0825 5.58282 18.0111 5.89852H17.971Z" fill="white"/>
</svg>
