<?xml version="1.0" encoding="UTF-8" standalone="no"?>
<svg
   xmlns:dc="http://purl.org/dc/elements/1.1/"
   xmlns:cc="http://creativecommons.org/ns#"
   xmlns:rdf="http://www.w3.org/1999/02/22-rdf-syntax-ns#"
   xmlns:svg="http://www.w3.org/2000/svg"
   xmlns="http://www.w3.org/2000/svg"
   style="fill:none"
   id="svg856"
   version="1.1"
   viewBox="0 0 18.714193 16.464899"
   height="16.464899"
   width="18.714193">
  <metadata
     id="metadata862">
    <rdf:RDF>
      <cc:Work
         rdf:about="">
        <dc:format>image/svg+xml</dc:format>
        <dc:type
           rdf:resource="http://purl.org/dc/dcmitype/StillImage" />
        <dc:title></dc:title>
      </cc:Work>
    </rdf:RDF>
  </metadata>
  <defs
     id="defs860" />
  <path
     style="fill:#4399ff;fill-opacity:0.94117647;stroke:none"
     id="path854"
     d="m 18.553205,3.7183702 c -0.1078,-0.4224 -0.2743,-0.82759 -0.4945,-1.20376 -0.2116,-0.39132 -0.4821,-0.74771 -0.802,-1.05664 -0.4639,-0.46260195 -1.0132,-0.83055695 -1.6174,-1.08338795 -1.2161,-0.499443 -2.5799,-0.499443 -3.796,0 -0.5711,0.241874 -1.0958,0.581313 -1.5506,1.00313795 l -0.0668,0.08025 -0.8687997,0.86939 -0.86882,-0.86939 -0.06683,-0.08025 c -0.45479,-0.42182495 -0.97945,-0.76126395 -1.55051,-1.00313795 -1.21614,-0.499443 -2.57994,-0.499443 -3.79608,0 -0.60418,0.252831 -1.15349,0.620786 -1.61734,1.08338795 -0.63441998,0.61771 -1.08351998,1.40067 -1.29654398,2.2604 -0.113327,0.4366 -0.16728,0.88649 -0.16039699623,1.33752 0,0.42399 0.0534659962,0.84665 0.16039699623,1.25726 0.112054,0.41469 0.273614,0.81437 0.481194,1.19039 0.22417,0.38656 0.49831998,0.74183 0.81534998,1.0566401 L 9.3571053,16.4649 17.256705,8.5601803 c 0.3168,-0.31164 0.5881,-0.6687601 0.802,-1.0566401 0.4341,-0.74218 0.6603,-1.5877 0.6549,-2.44765 0.0069,-0.45103 -0.047,-0.90093 -0.1604,-1.33752 z m -1.3366,2.18015 c -0.1601,0.61114 -0.4782,1.16932 -0.9223,1.6184 L 9.3304053,14.472 2.3664453,7.5169202 c -0.22693,-0.22869 -0.42449,-0.4848 -0.58812,-0.76239 -0.15397,-0.27462 -0.27511,-0.56642 -0.3609,-0.86938 -0.06849,-0.30292 -0.10433,-0.61232 -0.10693,-0.92289 0.00181,-0.31945 0.03766,-0.63779 0.10693,-0.94963 0.08328,-0.30384 0.20453,-0.59594 0.3609,-0.86939 0.16039,-0.28088 0.35822,-0.53501 0.58812,-0.76238 0.34338,-0.33901 0.74678,-0.61114 1.18962,-0.80251 0.89236,-0.35722 1.88786,-0.35722 2.78022,0 0.44109,0.18324 0.83941,0.45208 1.17625,0.78913 l 1.81787,1.8324 1.8177997,-1.8324 c 0.3366,-0.33765 0.7363,-0.60578 1.1763,-0.78913 0.8923,-0.35722 1.8878,-0.35722 2.7802,0 0.4424,0.19126 0.8461,0.46411 1.1896,0.80251 0.2326,0.22069 0.4277,0.47749 0.5747,0.76238 0.3096,0.54633 0.4709,1.16423 0.4679,1.79227 0.0182,0.32318 -0.0088,0.64731 -0.0802,0.96301 z" />
  <path
     id="path895"
     d="M 5.7154944,10.841636 C 1.9561107,7.0760276 1.9427417,7.06179 1.6887608,6.5532249 1.4170087,6.0090753 1.3168643,5.5110088 1.3395972,4.8166658 1.3566676,4.2952786 1.4084502,4.0201291 1.5614937,3.6376094 1.7708531,3.1143325 2.0199962,2.7449148 2.430307,2.3493741 2.8660062,1.9293588 3.3856318,1.6229462 3.9235687,1.468828 4.8820922,1.1942124 5.9512216,1.3229934 6.7743184,1.8122124 7.1491233,2.0349828 7.468248,2.3221236 8.3870602,3.2633193 c 0.4986883,0.510837 0.9226379,0.9287945 0.9421099,0.9287945 0.019472,0 0.4864178,-0.4568246 1.0376579,-1.0151657 1.087741,-1.1017538 1.251311,-1.2384657 1.794369,-1.499734 0.780447,-0.3754778 1.714199,-0.4519257 2.567694,-0.2102216 0.704727,0.1995741 1.476611,0.7331279 1.903079,1.3154768 0.172271,0.2352379 0.422483,0.7380702 0.523371,1.0517779 0.103909,0.3230996 0.169834,0.7983119 0.169834,1.2242201 0,0.3664377 -0.04608,0.767965 -0.09506,0.8282126 -0.01528,0.018794 -0.06073,0.1310505 -0.101,0.2494576 -0.04027,0.1184072 -0.11494,0.3026957 -0.165927,0.40953 -0.251954,0.5279222 -0.2007,0.4731539 -4.020351,4.2959685 l -3.6151664,3.61816 z"
     style="opacity:1;fill:#4399ff;fill-opacity:0.94117647;stroke:#4399ff;stroke-width:0.04202862;stroke-linecap:round;stroke-miterlimit:4;stroke-dasharray:none;stroke-opacity:1" />
  <path
     id="path897"
     d=""
     style="opacity:1;fill:#4399ff;fill-opacity:0.94117647;stroke:#4399ff;stroke-width:0.04202862;stroke-linecap:round;stroke-miterlimit:4;stroke-dasharray:none;stroke-opacity:1" />
  <path
     id="path899"
     d="M 5.2281866,12.303891 C 1.8799394,8.9504951 1.0622908,8.1160395 0.90684941,7.8937267 0.53178648,7.3573103 0.21522386,6.5991587 0.092711,5.9439059 0.01308598,5.5180361 0.01240213,4.4812006 0.09148525,4.085483 0.30399998,3.0220979 0.73314155,2.2009008 1.4480822,1.489525 2.1567878,0.7843532 3.0203458,0.31808984 4.0115551,0.1054217 4.44744,0.01190076 5.3927756,0.00416708 5.8547451,0.09034277 6.5436984,0.21885998 7.285951,0.53597111 7.8807308,0.95590066 8.0607775,1.0830182 8.3946737,1.3811125 8.7642433,1.7446787 l 0.594086,0.5844356 0.609319,-0.6000244 C 10.420636,1.2830126 10.659041,1.0735508 10.89686,0.91269123 c 0.607209,-0.41071431 1.289874,-0.6964007 1.965054,-0.82234846 0.461969,-0.08617569 1.407305,-0.07844201 1.84319,0.01507893 1.033625,0.22176878 1.880478,0.69198052 2.621373,1.4555072 0.645282,0.6649934 1.076885,1.4882825 1.278951,2.4396174 0.08297,0.3906491 0.114158,1.2221642 0.06158,1.6421181 -0.113512,0.9066804 -0.500012,1.8163732 -1.068538,2.5149788 -0.11369,0.1397025 -2.014349,2.0603528 -4.223687,4.2681118 L 9.3578075,16.439861 Z M 3.8428539,8.9676514 C 2.6502231,7.7682329 2.2490765,7.3546134 2.0035377,7.0711461 L 1.87159,6.9188163 1.9735414,7.0711461 c 0.089218,0.133304 3.0003091,3.0922939 3.0422373,3.0922939 0.00885,0 -0.5189631,-0.5381049 -1.1729248,-1.1957886 z M 16.58382,7.1930098 c 0.108068,-0.140727 0.07857,-0.116187 -0.12819,0.1066309 -0.14771,0.1591846 -0.735576,0.7624104 -1.306368,1.3405018 L 14.111458,9.6912177 15.277451,8.5335116 C 15.918748,7.8967733 16.506613,7.2935475 16.58382,7.1930098 Z M 1.3513633,5.4659713 c -0.00973,-0.024304 -0.016945,-0.017085 -0.018406,0.018407 -0.00132,0.032116 0.00588,0.05011 0.016001,0.039987 0.010123,-0.010124 0.011206,-0.036401 0.00241,-0.058393 z M 17.347214,5.1594077 c -0.0068,-0.054458 -0.01229,-0.0099 -0.01229,0.099014 0,0.1089158 0.0055,0.1534723 0.01229,0.099014 0.0068,-0.054458 0.0068,-0.1435708 0,-0.198028 z M 1.3225996,4.7785833 c -0.00605,-0.096349 -0.010993,-0.017518 -0.010993,0.1751792 0,0.1926972 0.00495,0.2715278 0.010993,0.1751792 0.00605,-0.096349 0.00605,-0.2540098 0,-0.3503584 z M 17.347214,4.7633504 c -0.0068,-0.054458 -0.01229,-0.0099 -0.01229,0.099014 0,0.1089158 0.0055,0.1534722 0.01229,0.099014 0.0068,-0.054458 0.0068,-0.1435708 0,-0.198028 z m -0.03139,-0.3193128 c -0.0077,-0.029642 -0.01455,-0.012766 -0.01517,0.037503 -6.22e-4,0.050269 0.0057,0.074522 0.01404,0.053895 0.0083,-0.020626 0.0089,-0.061755 0.0011,-0.091398 z M 1.3513633,4.3996631 c -0.00973,-0.024304 -0.016945,-0.017085 -0.018406,0.018407 -0.00132,0.032116 0.00588,0.05011 0.016001,0.039986 0.010123,-0.010124 0.011206,-0.036401 0.00241,-0.058393 z M 17.285055,4.2473333 c -0.0097,-0.024304 -0.01694,-0.017085 -0.01841,0.018407 -0.0013,0.032116 0.0059,0.05011 0.016,0.039987 0.01012,-0.010124 0.01121,-0.036401 0.0024,-0.058393 z M 16.963364,3.3004769 c -0.03009,-0.029865 -0.03359,-0.026365 -0.01705,0.017055 0.01144,0.030046 0.02848,0.046955 0.03786,0.037575 0.0094,-0.00938 1.9e-5,-0.033963 -0.0208,-0.054629 z M 2.2007477,2.569802 2.290229,2.4707876 2.1912146,2.5602689 c -0.092295,0.083409 -0.113018,0.1085474 -0.089481,0.1085474 0.00524,0 0.0498,-0.044557 0.099014,-0.099014 z M 11.445247,2.0983146 c 0,-0.020442 -0.397985,0.3348394 -0.472222,0.4215536 -0.03351,0.039145 0.05903,-0.0364 0.205645,-0.1678775 0.146617,-0.1314774 0.266577,-0.2456317 0.266577,-0.2536761 z M 2.3702799,2.4022392 c 0.037896,-0.048321 0.036818,-0.049398 -0.011502,-0.011502 -0.029324,0.022997 -0.053315,0.046989 -0.053315,0.053315 0,0.025075 0.025018,0.00894 0.064817,-0.041813 z m 5.2362573,0.044266 c 0,-0.00498 -0.058266,-0.063244 -0.1294803,-0.1294803 L 7.3475766,2.1965941 7.468007,2.3260744 C 7.580006,2.4464898 7.6065372,2.4695545 7.6065372,2.4465052 Z M 2.5491896,2.22706 c 0.056843,-0.058647 0.096496,-0.1066308 0.088118,-0.1066308 -0.00838,0 -0.061741,0.047984 -0.1185837,0.1066308 -0.056843,0.058647 -0.096496,0.1066309 -0.088118,0.1066309 0.00838,0 0.061741,-0.047984 0.1185837,-0.1066309 z M 7.3323437,2.201905 c 0,-0.00546 -0.037702,-0.043159 -0.083781,-0.083781 l -0.083781,-0.073859 0.073859,0.083781 c 0.069032,0.078306 0.093704,0.097753 0.093703,0.073859 z M 2.7358713,2.0671138 c 0.037896,-0.048321 0.036818,-0.049398 -0.011502,-0.011503 -0.029324,0.022997 -0.053315,0.046989 -0.053315,0.053315 0,0.025074 0.025018,0.00894 0.064818,-0.041813 z m 8.8046597,-0.030466 c 0.0379,-0.048321 0.03682,-0.049398 -0.0115,-0.011502 -0.05075,0.0398 -0.06689,0.064818 -0.04181,0.064818 0.0063,0 0.03032,-0.023992 0.05331,-0.053316 z m -4.390983,0.011347 c 0,-0.00633 -0.023992,-0.030318 -0.053315,-0.053315 -0.048321,-0.037896 -0.049398,-0.036818 -0.011503,0.011503 0.0398,0.050749 0.064818,0.066887 0.064818,0.041812 z m 8.34767,-0.276852 c 0,-0.00779 -0.03085,-0.029109 -0.06855,-0.04738 -0.06583,-0.031899 -0.0662,-0.031337 -0.0094,0.014161 0.06216,0.049799 0.07796,0.056532 0.07796,0.033219 z M 12.267828,1.617741 c 0.04189,-0.023947 0.06245,-0.04354 0.0457,-0.04354 -0.01676,0 -0.06474,0.019593 -0.10663,0.04354 -0.04189,0.023947 -0.06246,0.04354 -0.0457,0.04354 0.01676,0 0.06474,-0.019593 0.10663,-0.04354 z m 2.924731,-0.015233 c -0.02513,-0.016243 -0.05941,-0.029533 -0.07616,-0.029533 -0.01676,0 -0.0099,0.01329 0.01523,0.029533 0.02513,0.016243 0.05941,0.029533 0.07616,0.029533 0.01676,0 0.0099,-0.01329 -0.01523,-0.029533 z M 12.450623,1.541576 c 0.02514,-0.016243 0.03199,-0.029533 0.01523,-0.029533 -0.01676,0 -0.05103,0.01329 -0.07617,0.029533 -0.02513,0.016243 -0.03199,0.029533 -0.01523,0.029533 0.01676,0 0.05103,-0.01329 0.07616,-0.029533 z M 12.6861,1.4622377 c -0.01012,-0.010123 -0.0364,-0.011206 -0.05839,-0.00241 -0.0243,0.00973 -0.01708,0.016945 0.01841,0.018407 0.03212,0.00132 0.05011,-0.00588 0.03999,-0.016001 z m 0.365591,-0.091398 c -0.01012,-0.010124 -0.0364,-0.011206 -0.05839,-0.00241 -0.0243,0.00973 -0.01708,0.016945 0.01841,0.018406 0.03212,0.00132 0.05011,-0.00588 0.03999,-0.016001 z M 4.4602933,1.3403739 c -0.010124,-0.010123 -0.036401,-0.011206 -0.058393,-0.00241 -0.024304,0.00973 -0.017085,0.016945 0.018407,0.018406 0.032116,0.00132 0.05011,-0.00588 0.039987,-0.016001 z m 8.7741937,0 c -0.01012,-0.010123 -0.0364,-0.011206 -0.05839,-0.00241 -0.0243,0.00973 -0.01709,0.016945 0.01841,0.018406 0.03212,0.00132 0.05011,-0.00588 0.03999,-0.016001 z m 1.035842,0 c -0.01012,-0.010123 -0.0364,-0.011206 -0.05839,-0.00241 -0.0243,0.00973 -0.01708,0.016945 0.01841,0.018406 0.03212,0.00132 0.05011,-0.00588 0.03999,-0.016001 z m -9.4742756,-0.03306 c -0.029324,-0.00766 -0.077307,-0.00766 -0.1066309,0 -0.029323,0.00766 -0.00533,0.013933 0.053315,0.013933 0.058647,0 0.082639,-0.00627 0.053316,-0.013933 z m 0.3960573,0 c -0.029323,-0.00766 -0.077307,-0.00766 -0.1066308,0 -0.029324,0.00766 -0.00533,0.013933 0.053315,0.013933 0.058647,0 0.082639,-0.00627 0.053316,-0.013933 z m 8.6838173,-0.00135 c -0.07903,-0.00625 -0.216128,-0.00632 -0.30466,-1.432e-4 -0.08853,0.00617 -0.02387,0.01129 0.143692,0.011369 0.167563,7.92e-5 0.239998,-0.00497 0.160968,-0.011226 z"
     style="opacity:1;fill:#4399ff;fill-opacity:0.94117647;stroke:#4399ff;stroke-width:0.04202862;stroke-linecap:round;stroke-miterlimit:4;stroke-dasharray:none;stroke-opacity:1" />
</svg>
