<svg width="24" height="24" viewBox="0 0 24 24" fill="none" xmlns="http://www.w3.org/2000/svg">
<path d="M21 3.75C21 3.55109 20.921 3.36032 20.7803 3.21967C20.6397 3.07902 20.4489 3 20.25 3C20.0511 3 19.8603 3.07902 19.7197 3.21967C19.579 3.36032 19.5 3.55109 19.5 3.75V20.25C19.5 20.4489 19.579 20.6397 19.7197 20.7803C19.8603 20.921 20.0511 21 20.25 21C20.4489 21 20.6397 20.921 20.7803 20.7803C20.921 20.6397 21 20.4489 21 20.25V3.75Z" fill="white"/>
<path d="M5.77 3.52501C4.612 2.69501 3 3.52301 3 4.94701V19.17C3 20.554 4.53 21.39 5.695 20.643L16.165 13.927C16.4054 13.7727 16.6043 13.5619 16.7444 13.313C16.8846 13.0641 16.9617 12.7847 16.969 12.4991C16.9763 12.2136 16.9136 11.9306 16.7863 11.6748C16.6591 11.4191 16.4712 11.1984 16.239 11.032L5.77 3.52501ZM4.5 4.94701C4.49999 4.901 4.51268 4.85588 4.53666 4.81662C4.56065 4.77735 4.59501 4.74547 4.63595 4.72448C4.6769 4.70349 4.72284 4.69421 4.76873 4.69766C4.81461 4.7011 4.85865 4.71714 4.896 4.74401L15.366 12.251C15.399 12.2748 15.4257 12.3064 15.4438 12.3429C15.4619 12.3794 15.4707 12.4197 15.4697 12.4604C15.4686 12.5011 15.4576 12.541 15.4376 12.5764C15.4176 12.6119 15.3892 12.642 15.355 12.664L4.885 19.381C4.84726 19.4052 4.8037 19.4188 4.75888 19.4204C4.71407 19.422 4.66965 19.4115 4.63029 19.3901C4.59092 19.3686 4.55805 19.3369 4.53513 19.2984C4.51221 19.2599 4.50007 19.2159 4.5 19.171V4.94601V4.94701Z" fill="white"/>
</svg>
