<?xml version="1.0" encoding="UTF-8" standalone="no"?>
<svg
   xmlns:dc="http://purl.org/dc/elements/1.1/"
   xmlns:cc="http://creativecommons.org/ns#"
   xmlns:rdf="http://www.w3.org/1999/02/22-rdf-syntax-ns#"
   xmlns:svg="http://www.w3.org/2000/svg"
   xmlns="http://www.w3.org/2000/svg"
   width="18"
   height="18"
   viewBox="0 0 18 18"
   version="1.1"
   id="svg898"
   style="fill:none">
  <metadata
     id="metadata904">
    <rdf:RDF>
      <cc:Work
         rdf:about="">
        <dc:format>image/svg+xml</dc:format>
        <dc:type
           rdf:resource="http://purl.org/dc/dcmitype/StillImage" />
        <dc:title></dc:title>
      </cc:Work>
    </rdf:RDF>
  </metadata>
  <defs
     id="defs902" />
  <path
     d="M 18,0.75 C 18,0.55109 17.921,0.36032 17.7803,0.21967 17.6397,0.07902 17.4489,0 17.25,0 17.0511,0 16.8603,0.07902 16.7197,0.21967 16.579,0.36032 16.5,0.55109 16.5,0.75 v 16.5 c 0,0.1989 0.079,0.3897 0.2197,0.5303 C 16.8603,17.921 17.0511,18 17.25,18 17.4489,18 17.6397,17.921 17.7803,17.7803 17.921,17.6397 18,17.4489 18,17.25 Z"
     id="path894"
     style="fill:#ffffff;fill-opacity:1" />
  <path
     d="M 2.77,0.52501 C 1.612,-0.30499 0,0.52301 0,1.94701 V 16.17 c 0,1.384 1.53,2.22 2.695,1.473 l 10.47,-6.716 c 0.2404,-0.1543 0.4393,-0.3651 0.5794,-0.614 C 13.8846,10.0641 13.9617,9.7847 13.969,9.4991 13.9763,9.2136 13.9136,8.9306 13.7863,8.6748 13.6591,8.4191 13.4712,8.1984 13.239,8.032 Z M 1.5,1.94701 C 1.49999,1.901 1.51268,1.85588 1.53666,1.81662 1.56065,1.77735 1.59501,1.74547 1.63595,1.72448 1.6769,1.70349 1.72284,1.69421 1.76873,1.69766 1.81461,1.7011 1.85865,1.71714 1.896,1.74401 L 12.366,9.251 c 0.033,0.0238 0.0597,0.0554 0.0778,0.0919 0.0181,0.0365 0.0269,0.0768 0.0259,0.1175 -0.0011,0.0407 -0.0121,0.0806 -0.0321,0.116 -0.02,0.0355 -0.0484,0.0656 -0.0826,0.0876 L 1.885,16.381 C 1.84726,16.4052 1.8037,16.4188 1.75888,16.4204 1.71407,16.422 1.66965,16.4115 1.63029,16.3901 1.59092,16.3686 1.55805,16.3369 1.53513,16.2984 1.51221,16.2599 1.50007,16.2159 1.5,16.171 V 1.94601 Z"
     id="path896"
     style="fill:#ffffff;fill-opacity:1" />
</svg>
