<?xml version="1.0" encoding="UTF-8" standalone="no"?>
<svg
   xmlns:dc="http://purl.org/dc/elements/1.1/"
   xmlns:cc="http://creativecommons.org/ns#"
   xmlns:rdf="http://www.w3.org/1999/02/22-rdf-syntax-ns#"
   xmlns:svg="http://www.w3.org/2000/svg"
   xmlns="http://www.w3.org/2000/svg"
   style="fill:none"
   id="svg964"
   version="1.1"
   viewBox="0 0 30 30.019644"
   height="30.019644"
   width="30">
  <metadata
     id="metadata970">
    <rdf:RDF>
      <cc:Work
         rdf:about="">
        <dc:format>image/svg+xml</dc:format>
        <dc:type
           rdf:resource="http://purl.org/dc/dcmitype/StillImage" />
        <dc:title></dc:title>
      </cc:Work>
    </rdf:RDF>
  </metadata>
  <defs
     id="defs968" />
  <path
     style="fill:#0065da;stroke-width:1.12573528;fill-opacity:1"
     id="path962"
     d="m 30,15.009766 c 0,3.980937 -1.580307,7.798643 -4.393407,10.613544 -2.812987,2.814901 -6.628329,4.396334 -10.606565,4.396334 -3.978236,0 -7.793578,-1.581433 -10.6066323,-4.396334 C 1.5803522,22.808409 0,18.990703 0,15.009766 0,11.028941 1.5803522,7.2111561 4.3933957,4.3962776 7.20645,1.5813878 11.021792,0 15.000028,0 18.978264,0 22.793606,1.5813878 25.606593,4.3962776 28.419693,7.2111561 30,11.028941 30,15.009766 Z M 12.731221,9.5555785 c -0.140154,-0.099853 -0.305074,-0.159179 -0.476749,-0.1714495 -0.171674,-0.01227 -0.343349,0.022852 -0.496336,0.1017665 -0.152988,0.078801 -0.281321,0.1983545 -0.37093,0.345263 -0.08961,0.147021 -0.137115,0.3158815 -0.137227,0.4881185 v 9.38109 c 1.12e-4,0.172237 0.04762,0.341098 0.137227,0.488006 0.08961,0.147021 0.217942,0.266461 0.37093,0.345376 0.152987,0.0788 0.324662,0.114037 0.496336,0.101766 0.171675,-0.01227 0.336595,-0.0716 0.476749,-0.171562 l 6.562587,-4.690489 c 0.121466,-0.08679 0.220531,-0.201394 0.288863,-0.33423 0.06833,-0.132837 0.104018,-0.280083 0.104018,-0.429468 0,-0.149385 -0.03569,-0.296632 -0.104018,-0.429356 -0.06833,-0.132837 -0.167397,-0.247436 -0.288863,-0.334231 z" />
</svg>
