<svg width="33" height="32" viewBox="0 0 33 32" fill="none" xmlns="http://www.w3.org/2000/svg">
<path d="M29.8243 15.9998C29.8243 19.5361 28.4205 22.9274 25.9216 25.4279C23.4228 27.9284 20.0336 29.3332 16.4997 29.3332C12.9658 29.3332 9.5766 27.9284 7.07774 25.4279C4.57889 22.9274 3.17505 19.5361 3.17505 15.9998C3.17505 12.4636 4.57889 9.07223 7.07774 6.57175C9.5766 4.07126 12.9658 2.6665 16.4997 2.6665C20.0336 2.6665 23.4228 4.07126 25.9216 6.57175C28.4205 9.07223 29.8243 12.4636 29.8243 15.9998ZM14.4843 11.1548C14.3598 11.0661 14.2133 11.0134 14.0608 11.0025C13.9083 10.9916 13.7558 11.0228 13.6199 11.0929C13.484 11.1629 13.37 11.2691 13.2904 11.3996C13.2108 11.5302 13.1686 11.6802 13.1685 11.8332V20.1665C13.1686 20.3195 13.2108 20.4695 13.2904 20.6C13.37 20.7306 13.484 20.8367 13.6199 20.9068C13.7558 20.9768 13.9083 21.0081 14.0608 20.9972C14.2133 20.9863 14.3598 20.9336 14.4843 20.8448L20.3139 16.6782C20.4218 16.6011 20.5098 16.4993 20.5705 16.3813C20.6312 16.2633 20.6629 16.1325 20.6629 15.9998C20.6629 15.8671 20.6312 15.7363 20.5705 15.6184C20.5098 15.5004 20.4218 15.3986 20.3139 15.3215L14.4843 11.1548Z" fill="white"/>
</svg>
