<svg width="24" height="24" viewBox="0 0 24 24" fill="none" xmlns="http://www.w3.org/2000/svg">
<path d="M3 3.75C3 3.55109 3.07902 3.36032 3.21967 3.21967C3.36032 3.07902 3.55109 3 3.75 3C3.94891 3 4.13968 3.07902 4.28033 3.21967C4.42098 3.36032 4.5 3.55109 4.5 3.75V20.25C4.5 20.4489 4.42098 20.6397 4.28033 20.7803C4.13968 20.921 3.94891 21 3.75 21C3.55109 21 3.36032 20.921 3.21967 20.7803C3.07902 20.6397 3 20.4489 3 20.25V3.75Z" fill="white"/>
<path d="M18.23 3.52501C19.388 2.69501 21 3.52301 21 4.94701V19.17C21 20.554 19.47 21.39 18.305 20.643L7.835 13.927C7.59464 13.7727 7.3957 13.5619 7.25556 13.313C7.11542 13.0641 7.03834 12.7847 7.03104 12.4991C7.02374 12.2136 7.08645 11.9306 7.21369 11.6748C7.34093 11.4191 7.52883 11.1984 7.761 11.032L18.23 3.52501ZM19.5 4.94701C19.5 4.901 19.4873 4.85588 19.4633 4.81662C19.4393 4.77735 19.405 4.74547 19.364 4.72448C19.3231 4.70349 19.2772 4.69421 19.2313 4.69766C19.1854 4.7011 19.1414 4.71714 19.104 4.74401L8.634 12.251C8.60098 12.2748 8.57427 12.3064 8.5562 12.3429C8.53814 12.3794 8.52926 12.4197 8.53035 12.4604C8.53143 12.5011 8.54244 12.541 8.56243 12.5764C8.58241 12.6119 8.61075 12.642 8.645 12.664L19.115 19.381C19.1527 19.4052 19.1963 19.4188 19.2411 19.4204C19.2859 19.422 19.3303 19.4115 19.3697 19.3901C19.4091 19.3686 19.4419 19.3369 19.4649 19.2984C19.4878 19.2599 19.4999 19.2159 19.5 19.171V4.94601V4.94701Z" fill="white"/>
</svg>
