<?xml version="1.0" encoding="UTF-8" standalone="no"?>
<svg
   xmlns:dc="http://purl.org/dc/elements/1.1/"
   xmlns:cc="http://creativecommons.org/ns#"
   xmlns:rdf="http://www.w3.org/1999/02/22-rdf-syntax-ns#"
   xmlns:svg="http://www.w3.org/2000/svg"
   xmlns="http://www.w3.org/2000/svg"
   style="fill:none"
   id="svg1594"
   version="1.1"
   viewBox="0 0 18 18"
   height="18"
   width="18">
  <metadata
     id="metadata1600">
    <rdf:RDF>
      <cc:Work
         rdf:about="">
        <dc:format>image/svg+xml</dc:format>
        <dc:type
           rdf:resource="http://purl.org/dc/dcmitype/StillImage" />
        <dc:title></dc:title>
      </cc:Work>
    </rdf:RDF>
  </metadata>
  <defs
     id="defs1598" />
  <path
     style="fill:#6b7499;fill-opacity:1"
     id="path1590"
     d="M 0,0.75 C 0,0.55109 0.07902,0.36032 0.21967,0.21967 0.36032,0.07902 0.55109,0 0.75,0 0.94891,0 1.13968,0.07902 1.28033,0.21967 1.42098,0.36032 1.5,0.55109 1.5,0.75 v 16.5 c 0,0.1989 -0.07902,0.3897 -0.21967,0.5303 C 1.13968,17.921 0.94891,18 0.75,18 0.55109,18 0.36032,17.921 0.21967,17.7803 0.07902,17.6397 0,17.4489 0,17.25 Z" />
  <path
     style="fill:#6b7499;fill-opacity:1"
     id="path1592"
     d="m 15.23,0.52501 c 1.158,-0.83 2.77,-0.002 2.77,1.422 V 16.17 c 0,1.384 -1.53,2.22 -2.695,1.473 L 4.835,10.927 C 4.59464,10.7727 4.3957,10.5619 4.25556,10.313 4.11542,10.0641 4.03834,9.7847 4.03104,9.4991 4.02374,9.2136 4.08645,8.9306 4.21369,8.6748 4.34093,8.4191 4.52883,8.1984 4.761,8.032 Z m 1.27,1.422 C 16.5,1.901 16.4873,1.85588 16.4633,1.81662 16.4393,1.77735 16.405,1.74547 16.364,1.72448 16.3231,1.70349 16.2772,1.69421 16.2313,1.69766 16.1854,1.7011 16.1414,1.71714 16.104,1.74401 L 5.634,9.251 C 5.60098,9.2748 5.57427,9.3064 5.5562,9.3429 5.53814,9.3794 5.52926,9.4197 5.53035,9.4604 5.53143,9.5011 5.54244,9.541 5.56243,9.5764 5.58241,9.6119 5.61075,9.642 5.645,9.664 l 10.47,6.717 c 0.0377,0.0242 0.0813,0.0378 0.1261,0.0394 0.0448,0.0016 0.0892,-0.0089 0.1286,-0.0303 0.0394,-0.0215 0.0722,-0.0532 0.0952,-0.0917 0.0229,-0.0385 0.035,-0.0825 0.0351,-0.1274 V 1.94601 Z" />
</svg>
