<?xml version="1.0" encoding="UTF-8" standalone="no"?>
<svg
   xmlns:dc="http://purl.org/dc/elements/1.1/"
   xmlns:cc="http://creativecommons.org/ns#"
   xmlns:rdf="http://www.w3.org/1999/02/22-rdf-syntax-ns#"
   xmlns:svg="http://www.w3.org/2000/svg"
   xmlns="http://www.w3.org/2000/svg"
   width="18.78661"
   height="20.301619"
   viewBox="0 0 18.78661 20.301619"
   version="1.1"
   id="svg1753"
   style="fill:none">
  <metadata
     id="metadata1759">
    <rdf:RDF>
      <cc:Work
         rdf:about="">
        <dc:format>image/svg+xml</dc:format>
        <dc:type
           rdf:resource="http://purl.org/dc/dcmitype/StillImage" />
        <dc:title></dc:title>
      </cc:Work>
    </rdf:RDF>
  </metadata>
  <defs
     id="defs1757" />
  <path
     d="m 1.39327,7.5840381 c 0.00352,-0.55817 0.22773,-1.09229 0.62367,-1.48574 0.39595,-0.39345 0.93147,-0.61427 1.48966,-0.61426 h 12.82001 l -2.8533,3.02664 c -0.06,0.0639 -0.1068,0.139 -0.1378,0.221 -0.0309,0.082 -0.0454,0.1693 -0.0426,0.2569 0.0028,0.0876 0.0228,0.1738 0.0589,0.2537 0.0361,0.0798 0.0876,0.1518 0.1515,0.2118 0.0639,0.0599 0.139,0.1067 0.221,0.1377 0.082,0.0309 0.1692,0.0454 0.2568,0.0426 0.0876,-0.0028 0.1738,-0.0228 0.2537,-0.0589 0.0799,-0.0361 0.1518,-0.0875 0.2118,-0.1514 l 4.34,-4.6067 -4.34,-4.60667 c -0.06,-0.06391 -0.1319,-0.11538 -0.2118,-0.15148 -0.0799,-0.03609 -0.1661,-0.05611 -0.2537,-0.0588900014 C 13.89351,-0.0024519 13.80631,0.0120481 13.72431,0.0429981 c -0.082,0.03094 -0.1571,0.07774 -0.221,0.13771 -0.0639,0.05997 -0.1154,0.13194 -0.1515,0.2118 -0.0361,0.07987 -0.0561,0.16606 -0.0589,0.25365 -0.0028,0.0876 0.0117,0.17489 0.0426,0.25688 0.031,0.082 0.0778,0.15709 0.1378,0.221 l 2.8533,3.02667 H 3.5066 c -0.9118,-1e-5 -1.78646,0.36129 -2.43246,1.00479 -0.64599,0.64349 -1.01068,1.51674 -1.0142,2.42854 v 4.0666399 l 1.33333,-1.4133 z"
     id="path1749"
     style="fill:#4399fd;fill-opacity:1" />
  <path
     d="m 17.39331,12.717578 c -0.0035,0.5581 -0.2277,1.0923 -0.6237,1.4857 -0.3959,0.3935 -0.9314,0.6143 -1.4896,0.6143 H 2.46 l 2.85333,-3.0267 c 0.05997,-0.0639 0.10677,-0.139 0.13772,-0.221 0.03094,-0.082 0.04544,-0.1693 0.04265,-0.2569 -0.00278,-0.0876 -0.02279,-0.1738 -0.05889,-0.2536 -0.03609,-0.0799 -0.08757,-0.1519 -0.15148,-0.2118 -0.06391,-0.06 -0.139,-0.1068 -0.221,-0.1377 -0.08199,-0.031 -0.16928,-0.0455 -0.25688,-0.0427 -0.08759,0.0028 -0.17378,0.0228 -0.25365,0.0589 -0.07986,0.0361 -0.15183,0.0876 -0.2118,0.1515 l -4.34,4.6066 4.34,4.6067 c 0.05997,0.0639 0.13194,0.1154 0.2118,0.1515 0.07987,0.0361 0.16606,0.0561 0.25365,0.0589 0.0876,0.0028 0.17489,-0.0117 0.25688,-0.0427 0.082,-0.0309 0.15709,-0.0777 0.221,-0.1377 0.06391,-0.06 0.11539,-0.1319 0.15148,-0.2118 0.0361,-0.0799 0.05611,-0.1661 0.05889,-0.2537 0.00279,-0.0876 -0.01171,-0.1748 -0.04265,-0.2568 -0.03095,-0.082 -0.07775,-0.1571 -0.13772,-0.221 L 2.46,16.150878 h 12.82001 c 0.9118,0 1.7865,-0.3613 2.4324,-1.0048 0.646,-0.6435 1.0107,-1.5167 1.0143,-2.4285 V 8.6508781 l -1.3334,1.4132999 z"
     id="path1751"
     style="fill:#4399fd;fill-opacity:1" />
</svg>
