<svg width="24" height="24" viewBox="0 0 24 24" fill="none" xmlns="http://www.w3.org/2000/svg">
<path d="M3.99996 9.43316C4.00348 8.87499 4.22769 8.34087 4.62363 7.94742C5.01958 7.55397 5.5551 7.33315 6.11329 7.33316H18.9333L16.08 10.3598C16.02 10.4237 15.9732 10.4988 15.9422 10.5808C15.9113 10.6628 15.8968 10.7501 15.8996 10.8377C15.9024 10.9253 15.9224 11.0115 15.9585 11.0914C15.9946 11.1712 16.0461 11.2432 16.11 11.3032C16.1739 11.3631 16.249 11.4099 16.331 11.4409C16.413 11.4718 16.5002 11.4863 16.5878 11.4835C16.6754 11.4807 16.7616 11.4607 16.8415 11.4246C16.9214 11.3885 16.9933 11.3371 17.0533 11.2732L21.3933 6.6665L17.0533 2.05983C16.9933 1.99592 16.9214 1.94445 16.8415 1.90835C16.7616 1.87226 16.6754 1.85224 16.5878 1.84946C16.5002 1.84667 16.413 1.86117 16.331 1.89212C16.249 1.92306 16.1739 1.96986 16.11 2.02983C16.0461 2.0898 15.9946 2.16177 15.9585 2.24163C15.9224 2.3215 15.9024 2.40769 15.8996 2.49528C15.8968 2.58288 15.9113 2.67017 15.9422 2.75216C15.9732 2.83416 16.02 2.90925 16.08 2.97316L18.9333 5.99983H6.11329C5.20149 5.99982 4.32683 6.36112 3.68083 7.00462C3.03484 7.64811 2.67015 8.52136 2.66663 9.43316V13.4998L3.99996 12.0865V9.43316Z" fill="white"/>
<path d="M20 14.5667C19.9965 15.1248 19.7723 15.659 19.3763 16.0524C18.9804 16.4459 18.4449 16.6667 17.8867 16.6667H5.06669L7.92002 13.64C7.97999 13.5761 8.02679 13.501 8.05774 13.419C8.08868 13.337 8.10318 13.2497 8.10039 13.1621C8.09761 13.0745 8.0776 12.9883 8.0415 12.9085C8.00541 12.8286 7.95393 12.7566 7.89002 12.6967C7.82611 12.6367 7.75102 12.5899 7.66902 12.559C7.58703 12.528 7.49974 12.5135 7.41214 12.5163C7.32455 12.5191 7.23836 12.5391 7.15849 12.5752C7.07863 12.6113 7.00666 12.6628 6.94669 12.7267L2.60669 17.3333L6.94669 21.94C7.00666 22.0039 7.07863 22.0554 7.15849 22.0915C7.23836 22.1276 7.32455 22.1476 7.41214 22.1504C7.49974 22.1532 7.58703 22.1387 7.66902 22.1077C7.75102 22.0768 7.82611 22.03 7.89002 21.97C7.95393 21.91 8.00541 21.8381 8.0415 21.7582C8.0776 21.6783 8.09761 21.5921 8.10039 21.5045C8.10318 21.4169 8.08868 21.3297 8.05774 21.2477C8.02679 21.1657 7.97999 21.0906 7.92002 21.0267L5.06669 18H17.8867C18.7985 18 19.6732 17.6387 20.3191 16.9952C20.9651 16.3517 21.3298 15.4785 21.3334 14.5667V10.5L20 11.9133V14.5667Z" fill="white"/>
</svg>
