<?xml version="1.0" encoding="UTF-8" standalone="no"?>
<svg
   xmlns:dc="http://purl.org/dc/elements/1.1/"
   xmlns:cc="http://creativecommons.org/ns#"
   xmlns:rdf="http://www.w3.org/1999/02/22-rdf-syntax-ns#"
   xmlns:svg="http://www.w3.org/2000/svg"
   xmlns="http://www.w3.org/2000/svg"
   width="21.333229"
   height="18.433939"
   viewBox="0 0 21.333229 18.433939"
   version="1.1"
   id="svg1675"
   style="fill:none">
  <metadata
     id="metadata1681">
    <rdf:RDF>
      <cc:Work
         rdf:about="">
        <dc:format>image/svg+xml</dc:format>
        <dc:type
           rdf:resource="http://purl.org/dc/dcmitype/StillImage" />
        <dc:title></dc:title>
      </cc:Work>
    </rdf:RDF>
  </metadata>
  <defs
     id="defs1679" />
  <path
     d="m 13.07323,4.5737042 h 5.7467 l -2.2,2.2 c -0.0622,0.06172 -0.1116,0.13508 -0.1454,0.21589 -0.0338,0.08082 -0.0513,0.16749 -0.0516,0.25504 -7e-4,0.177 0.069,0.3469 0.1937,0.4724 0.0617,0.0622 0.135,0.1116 0.2159,0.1454 0.0808,0.0338 0.1674,0.0513 0.255,0.0516 0.1769,7e-4 0.3469,-0.069 0.4724,-0.1937 l 3.7733,-3.75996 -0.4733,-0.47333 -3.3,-3.29333996 C 17.43443,0.06905424 17.26443,-6.2576487e-4 17.08753,4.235131e-6 16.91063,6.2423513e-4 16.74123,0.07150424 16.61663,0.19704424 c -0.1247,0.12553 -0.1944,0.29544 -0.1937,0.47235 6e-4,0.17691 0.0715,0.34632996 0.197,0.47097996 l 2.12,2.1 h -6.0733 c -0.1164,7e-4 -0.2305,0.03184 -0.3311,0.09032 -0.1006,0.05847 -0.1841,0.14226 -0.2423,0.24301 l -1.76,3.06 0.7734,1.33333 z"
     id="path1669"
     style="fill:#4399fd;fill-opacity:1" />
  <path
     d="m 6.04667,13.953734 h -5.38 c -0.17681,0 -0.34638,0.0702 -0.4714,0.1953 C 0.07024,14.274034 0,14.443534 0,14.620434 c 0,0.1768 0.07024,0.3463 0.19527,0.4714 0.12502,0.125 0.29459,0.1952 0.4714,0.1952 h 5.76667 c 0.11634,-7e-4 0.23047,-0.0318 0.33105,-0.0903 0.10059,-0.0585 0.18411,-0.1422 0.24228,-0.243 L 8.78663,11.907034 8,10.573734 Z"
     id="path1671"
     style="fill:#4399fd;fill-opacity:1" />
  <path
     d="m 17.56003,10.686934 c -0.1256,-0.1247 -0.2955,-0.1943 -0.4724,-0.1937 -0.1769,6e-4 -0.3463,0.0715 -0.471,0.197 -0.1246,0.1256 -0.1943,0.2955 -0.1937,0.4724 7e-4,0.1769 0.0715,0.3463 0.1971,0.471 l 2.3333,2.3333 h -5.88 L 7.00667,3.5935842 C 6.9485,3.4928242 6.86497,3.4090442 6.76439,3.3505742 6.66381,3.2920942 6.54968,3.2609542 6.43334,3.2602542 H 0.66667 c -0.17681,0 -0.34638,0.07024 -0.4714,0.19526 C 0.07024,3.5805442 0,3.7501142 0,3.9269242 c 0,0.17681 0.07024,0.34638 0.19527,0.4714 0.12502,0.12502 0.29459,0.19526 0.4714,0.19526 h 5.38 l 6.06666,10.3666498 c 0.0582,0.1008 0.1417,0.1846 0.2423,0.243 0.1006,0.0585 0.2147,0.0897 0.331,0.0904 h 5.9134 l -2,2 c -0.0622,0.0617 -0.1116,0.135 -0.1454,0.2158 -0.0338,0.0809 -0.0514,0.1675 -0.0517,0.2551 -3e-4,0.0876 0.0167,0.1744 0.0499,0.2555 0.0332,0.081 0.0821,0.1547 0.1438,0.2169 0.0618,0.0621 0.1351,0.1115 0.2159,0.1453 0.0808,0.0339 0.1675,0.0514 0.2551,0.0517 0.0876,3e-4 0.1744,-0.0166 0.2555,-0.0498 0.081,-0.0333 0.1547,-0.0822 0.2169,-0.1439 l 3.3,-3.2933 0.4733,-0.4733 z"
     id="path1673"
     style="fill:#4399fd;fill-opacity:1" />
</svg>
