<svg width="24" height="24" viewBox="0 0 24 24" fill="none" xmlns="http://www.w3.org/2000/svg">
<path d="M14.4066 7.33347H20.1533L17.9533 9.53347C17.8911 9.59519 17.8417 9.66855 17.8079 9.74936C17.7741 9.83018 17.7566 9.91685 17.7563 10.0044C17.7556 10.1814 17.8253 10.3513 17.95 10.4768C18.0117 10.539 18.085 10.5884 18.1659 10.6222C18.2467 10.656 18.3333 10.6735 18.4209 10.6738C18.5978 10.6745 18.7678 10.6048 18.8933 10.4801L22.6666 6.72014L22.1933 6.24681L18.8933 2.95347C18.7678 2.82882 18.5978 2.75914 18.4209 2.75977C18.244 2.76039 18.0746 2.83127 17.95 2.95681C17.8253 3.08234 17.7556 3.25225 17.7563 3.42916C17.7569 3.60607 17.8278 3.77549 17.9533 3.90014L20.0733 6.00014H14C13.8836 6.00084 13.7695 6.03198 13.6689 6.09046C13.5683 6.14893 13.4848 6.23272 13.4266 6.33347L11.6666 9.39347L12.44 10.7268L14.4066 7.33347Z" fill="white"/>
<path d="M7.38004 16.7135H2.00004C1.82323 16.7135 1.65366 16.7837 1.52864 16.9088C1.40361 17.0338 1.33337 17.2033 1.33337 17.3802C1.33337 17.557 1.40361 17.7265 1.52864 17.8516C1.65366 17.9766 1.82323 18.0468 2.00004 18.0468H7.76671C7.88305 18.0461 7.99718 18.015 8.09776 17.9565C8.19835 17.898 8.28187 17.8143 8.34004 17.7135L10.12 14.6668L9.33337 13.3335L7.38004 16.7135Z" fill="white"/>
<path d="M18.8934 13.4467C18.7678 13.322 18.5979 13.2524 18.421 13.253C18.2441 13.2536 18.0747 13.3245 17.95 13.45C17.8254 13.5756 17.7557 13.7455 17.7563 13.9224C17.757 14.0993 17.8278 14.2687 17.9534 14.3934L20.2867 16.7267H14.4067L8.34004 6.35335C8.28187 6.25259 8.19834 6.16881 8.09776 6.11034C7.99718 6.05186 7.88305 6.02072 7.76671 6.02002H2.00004C1.82323 6.02002 1.65366 6.09026 1.52864 6.21528C1.40361 6.34031 1.33337 6.50988 1.33337 6.68669C1.33337 6.8635 1.40361 7.03307 1.52864 7.15809C1.65366 7.28311 1.82323 7.35335 2.00004 7.35335H7.38004L13.4467 17.72C13.5049 17.8208 13.5884 17.9046 13.689 17.963C13.7896 18.0215 13.9037 18.0527 14.02 18.0534H19.9334L17.9334 20.0534C17.8712 20.1151 17.8218 20.1884 17.788 20.2692C17.7542 20.3501 17.7366 20.4367 17.7363 20.5243C17.736 20.6119 17.753 20.6987 17.7862 20.7798C17.8194 20.8608 17.8683 20.9345 17.93 20.9967C17.9918 21.0588 18.0651 21.1082 18.1459 21.142C18.2267 21.1759 18.3134 21.1934 18.401 21.1937C18.4886 21.194 18.5754 21.1771 18.6565 21.1439C18.7375 21.1106 18.8112 21.0617 18.8734 21L22.1734 17.7067L22.6467 17.2334L18.8934 13.4467Z" fill="white"/>
</svg>
