<?xml version="1.0" encoding="UTF-8" standalone="no"?>
<svg
   xmlns:dc="http://purl.org/dc/elements/1.1/"
   xmlns:cc="http://creativecommons.org/ns#"
   xmlns:rdf="http://www.w3.org/1999/02/22-rdf-syntax-ns#"
   xmlns:svg="http://www.w3.org/2000/svg"
   xmlns="http://www.w3.org/2000/svg"
   id="svg8"
   version="1.1"
   viewBox="0 0 5.6701026 4.9516969"
   height="4.9516969mm"
   width="5.6701026mm">
  <defs
     id="defs2" />
  <metadata
     id="metadata5">
    <rdf:RDF>
      <cc:Work
         rdf:about="">
        <dc:format>image/svg+xml</dc:format>
        <dc:type
           rdf:resource="http://purl.org/dc/dcmitype/StillImage" />
        <dc:title></dc:title>
      </cc:Work>
    </rdf:RDF>
  </metadata>
  <g
     transform="translate(-50.081615,-46.571771)"
     id="layer1">
    <g
       transform="matrix(0.26458333,0,0,0.26458333,49.728793,45.868422)"
       id="g875"
       style="fill:#ffffff">
      <path
         style="fill:#ffffff"
         d="m 15.6065,16.8333 c -0.1457,0.0019 -0.2881,-0.0439 -0.4053,-0.1306 -0.1171,-0.0867 -0.2027,-0.2093 -0.2435,-0.3492 -0.0409,-0.1399 -0.0347,-0.2894 0.0174,-0.4255 0.0522,-0.1361 0.1475,-0.2513 0.2714,-0.3281 0.6067,-0.3786 1.1049,-0.9079 1.4461,-1.5363 0.3413,-0.6284 0.5139,-1.3345 0.5012,-2.0495 C 17.181,11.2991 16.9833,10.5996 16.6198,9.98375 16.2564,9.36791 15.7396,8.8567 15.1199,8.49994 15.0402,8.45827 14.9698,8.4009 14.9128,8.33131 14.8559,8.26171 14.8137,8.18132 14.7886,8.09497 14.7636,8.00862 14.7562,7.91809 14.7671,7.82883 c 0.0108,-0.08925 0.0396,-0.1754 0.0846,-0.25324 0.045,-0.07784 0.1053,-0.14578 0.1772,-0.19972 0.0719,-0.05395 0.154,-0.09278 0.2414,-0.11417 0.0873,-0.0214 0.1781,-0.0249 0.2668,-0.01031 0.0887,0.0146 0.1735,0.04698 0.2494,0.09522 0.816,0.47313 1.4958,1.14909 1.9736,1.96231 0.4778,0.81318 0.7373,1.73608 0.7534,2.67918 0.0161,0.943 -0.2118,1.8743 -0.6615,2.7033 -0.4498,0.8291 -1.1062,1.5278 -1.9055,2.0285 -0.1008,0.0681 -0.2184,0.1073 -0.34,0.1134 z"
         id="path858" />
      <path
         style="fill:#ffffff"
         d="m 17.0801,20.7867 c -0.1492,-9e-4 -0.2939,-0.0519 -0.4108,-0.1447 -0.1168,-0.0929 -0.1992,-0.2223 -0.2337,-0.3676 -0.0346,-0.1452 -0.0195,-0.2978 0.043,-0.4334 0.0625,-0.1356 0.1687,-0.2463 0.3015,-0.3143 1.3986,-0.6891 2.5745,-1.7585 3.393,-3.0854 0.8185,-1.327 1.2464,-2.8578 1.2346,-4.4168 C 21.3958,10.4654 20.9448,8.9413 20.1062,7.62692 19.2677,6.31254 18.0756,5.26114 16.6668,4.59335 16.5855,4.55682 16.5124,4.50436 16.4517,4.43909 16.3911,4.37381 16.3441,4.29704 16.3136,4.2133 16.2832,4.12957 16.2698,4.04057 16.2743,3.95157 c 0.0045,-0.08899 0.0268,-0.17618 0.0656,-0.25641 0.0387,-0.08023 0.0932,-0.15187 0.1602,-0.21069 0.0669,-0.05882 0.145,-0.10362 0.2295,-0.13176 0.0846,-0.02814 0.1739,-0.03904 0.2627,-0.03206 0.0889,0.00698 0.1754,0.0317 0.2545,0.0727 1.6364,0.77254 3.022,1.99069 3.9977,3.51472 0.9757,1.52403 1.5022,3.29223 1.5189,5.10173 0.0167,1.8096 -0.477,3.5872 -1.4244,5.129 -0.9475,1.5417 -2.3103,2.7853 -3.9322,3.5879 -0.1021,0.0472 -0.2144,0.0679 -0.3267,0.06 z"
         id="path860" />
      <path
         style="fill:#ffffff"
         d="m 12.0002,21.3734 c -0.176,10e-5 -0.3502,-0.0346 -0.5127,-0.1021 -0.1625,-0.0675 -0.31,-0.1665 -0.434,-0.2913 L 6.0935,16 H 2.66683 C 2.31321,16 1.97407,15.8595 1.72402,15.6095 1.47397,15.3595 1.3335,15.0203 1.3335,14.6667 V 9.33336 C 1.3335,8.97973 1.47397,8.6406 1.72402,8.39055 1.97407,8.1405 2.31321,8.00002 2.66683,8.00002 h 3.48 L 11.0335,3.07335 c 0.1841,-0.19382 0.4223,-0.32782 0.6835,-0.3846 0.2612,-0.05678 0.5335,-0.03373 0.7815,0.06618 0.2479,0.09991 0.4601,0.27204 0.609,0.49407 0.1489,0.22203 0.2277,0.48369 0.226,0.75102 V 20 c 0,0.2644 -0.0786,0.5228 -0.2258,0.7424 -0.1472,0.2196 -0.3563,0.3905 -0.6009,0.491 -0.1579,0.0798 -0.3301,0.1274 -0.5066,0.14 z M 2.66683,9.33336 V 14.6667 H 6.3735 c 0.0882,4e-4 0.17546,0.0182 0.25671,0.0526 0.08125,0.0343 0.15488,0.0844 0.21662,0.1474 L 12.0002,20.04 V 4.00002 L 6.90016,9.13336 C 6.83842,9.19635 6.76479,9.24646 6.68354,9.28079 6.60229,9.31512 6.51503,9.33299 6.42683,9.33336 Z"
         id="path862" />
    </g>
  </g>
</svg>
