<svg width="24" height="24" viewBox="0 0 24 24" fill="none" xmlns="http://www.w3.org/2000/svg">
<path d="M15.6065 16.8333C15.4608 16.8352 15.3184 16.7894 15.2012 16.7027C15.0841 16.616 14.9985 16.4934 14.9577 16.3535C14.9168 16.2136 14.923 16.0641 14.9751 15.928C15.0273 15.7919 15.1226 15.6767 15.2465 15.5999C15.8532 15.2213 16.3514 14.692 16.6926 14.0636C17.0339 13.4352 17.2065 12.7291 17.1938 12.0141C17.181 11.2991 16.9833 10.5996 16.6198 9.98375C16.2564 9.36791 15.7396 8.8567 15.1199 8.49994C15.0402 8.45827 14.9698 8.4009 14.9128 8.33131C14.8559 8.26171 14.8137 8.18132 14.7886 8.09497C14.7636 8.00862 14.7562 7.91809 14.7671 7.82883C14.7779 7.73958 14.8067 7.65343 14.8517 7.57559C14.8967 7.49775 14.957 7.42981 15.0289 7.37587C15.1008 7.32192 15.1829 7.28309 15.2703 7.2617C15.3576 7.2403 15.4484 7.2368 15.5371 7.25139C15.6258 7.26599 15.7106 7.29837 15.7865 7.34661C16.6025 7.81974 17.2823 8.4957 17.7601 9.30892C18.2379 10.1221 18.4974 11.045 18.5135 11.9881C18.5296 12.9311 18.3017 13.8624 17.852 14.6914C17.4022 15.5205 16.7458 16.2192 15.9465 16.7199C15.8457 16.788 15.7281 16.8272 15.6065 16.8333Z" fill="white"/>
<path d="M17.0801 20.7867C16.9309 20.7858 16.7862 20.7348 16.6693 20.642C16.5525 20.5491 16.4701 20.4197 16.4356 20.2744C16.401 20.1292 16.4161 19.9766 16.4786 19.841C16.5411 19.7054 16.6473 19.5947 16.7801 19.5267C18.1787 18.8376 19.3546 17.7682 20.1731 16.4413C20.9916 15.1143 21.4195 13.5835 21.4077 12.0245C21.3958 10.4654 20.9448 8.9413 20.1062 7.62692C19.2677 6.31254 18.0756 5.26114 16.6668 4.59335C16.5855 4.55682 16.5124 4.50436 16.4517 4.43909C16.3911 4.37381 16.3441 4.29704 16.3136 4.2133C16.2832 4.12957 16.2698 4.04057 16.2743 3.95157C16.2788 3.86258 16.3011 3.77539 16.3399 3.69516C16.3786 3.61493 16.4331 3.54329 16.5001 3.48447C16.567 3.42565 16.6451 3.38085 16.7296 3.35271C16.8142 3.32457 16.9035 3.31367 16.9923 3.32065C17.0812 3.32763 17.1677 3.35235 17.2468 3.39335C18.8832 4.16589 20.2688 5.38404 21.2445 6.90807C22.2202 8.4321 22.7467 10.2003 22.7634 12.0098C22.7801 13.8194 22.2864 15.597 21.339 17.1388C20.3915 18.6805 19.0287 19.9241 17.4068 20.7267C17.3047 20.7739 17.1924 20.7946 17.0801 20.7867Z" fill="white"/>
<path d="M12.0002 21.3734C11.8242 21.3735 11.65 21.3388 11.4875 21.2713C11.325 21.2038 11.1775 21.1048 11.0535 20.98L6.0935 16H2.66683C2.31321 16 1.97407 15.8595 1.72402 15.6095C1.47397 15.3595 1.3335 15.0203 1.3335 14.6667V9.33336C1.3335 8.97973 1.47397 8.6406 1.72402 8.39055C1.97407 8.1405 2.31321 8.00002 2.66683 8.00002H6.14683L11.0335 3.07335C11.2176 2.87953 11.4558 2.74553 11.717 2.68875C11.9782 2.63197 12.2505 2.65502 12.4985 2.75493C12.7464 2.85484 12.9586 3.02697 13.1075 3.249C13.2564 3.47103 13.3352 3.73269 13.3335 4.00002V20C13.3335 20.2644 13.2549 20.5228 13.1077 20.7424C12.9605 20.962 12.7514 21.1329 12.5068 21.2334C12.3489 21.3132 12.1767 21.3608 12.0002 21.3734ZM2.66683 9.33336V14.6667H6.3735C6.4617 14.6671 6.54896 14.6849 6.63021 14.7193C6.71146 14.7536 6.78509 14.8037 6.84683 14.8667L12.0002 20.04V4.00002L6.90016 9.13336C6.83842 9.19635 6.76479 9.24646 6.68354 9.28079C6.60229 9.31512 6.51503 9.33299 6.42683 9.33336H2.66683Z" fill="white"/>
</svg>
