<?xml version="1.0" encoding="UTF-8" standalone="no"?>
<svg
   xmlns:dc="http://purl.org/dc/elements/1.1/"
   xmlns:cc="http://creativecommons.org/ns#"
   xmlns:rdf="http://www.w3.org/1999/02/22-rdf-syntax-ns#"
   xmlns:svg="http://www.w3.org/2000/svg"
   xmlns="http://www.w3.org/2000/svg"
   id="svg8"
   version="1.1"
   viewBox="0 0 5.6701026 4.9516969"
   height="4.9516969mm"
   width="5.6701026mm">
  <defs
     id="defs2" />
  <metadata
     id="metadata5">
    <rdf:RDF>
      <cc:Work
         rdf:about="">
        <dc:format>image/svg+xml</dc:format>
        <dc:type
           rdf:resource="http://purl.org/dc/dcmitype/StillImage" />
        <dc:title></dc:title>
      </cc:Work>
    </rdf:RDF>
  </metadata>
  <g
     transform="translate(-50.081615,-46.571771)"
     id="layer1">
    <path
       id="path862"
       d="m 52.903846,51.523467 c -0.04657,2.7e-5 -0.09266,-0.0092 -0.135652,-0.02701 -0.04299,-0.01786 -0.08202,-0.04405 -0.114829,-0.07707 l -1.312333,-1.317625 h -0.90664 c -0.09356,0 -0.183293,-0.03717 -0.249452,-0.10332 -0.06616,-0.06614 -0.103325,-0.155892 -0.103325,-0.249449 V 48.33788 c 0,-0.09356 0.03717,-0.183292 0.103325,-0.249451 0.06616,-0.06616 0.15589,-0.103328 0.249452,-0.103328 h 0.92075 l 1.292931,-1.303515 c 0.04871,-0.05128 0.111734,-0.08674 0.180843,-0.101759 0.06911,-0.01502 0.141155,-0.0089 0.206772,0.01751 0.06559,0.02643 0.121735,0.07198 0.161131,0.130722 0.0394,0.05875 0.06025,0.127977 0.0598,0.198708 v 4.233328 c 0,0.06996 -0.0208,0.138324 -0.05974,0.196426 -0.03895,0.0581 -0.09427,0.10332 -0.158988,0.129911 -0.04178,0.02111 -0.08734,0.03371 -0.134038,0.03704 z m -2.469454,-3.185594 v 1.411113 h 0.980723 c 0.02334,1.06e-4 0.04642,0.0048 0.06792,0.01392 0.0215,0.0091 0.04098,0.02233 0.05731,0.039 l 1.363496,1.368769 v -4.243911 l -1.349386,1.358196 c -0.01633,0.01667 -0.03582,0.02992 -0.05731,0.03901 -0.0215,0.0091 -0.04458,0.01381 -0.06792,0.01391 z"
       style="fill:#ffffff;stroke-width:0.26458332" />
    <path
       id="path937"
       d="m 55.15437,47.013294 -4.159382,4.042452"
       style="fill:#000000;stroke:#ffffff;stroke-width:0.36500001;stroke-linecap:round;stroke-linejoin:miter;stroke-miterlimit:4;stroke-dasharray:none;stroke-opacity:1" />
  </g>
</svg>
