<svg width="48" height="48" viewBox="0 0 48 48" fill="none" xmlns="http://www.w3.org/2000/svg">
<path d="M40.5919 7.45557C36.169 3.0376 30.282 0.600098 24.0289 0.600098C20.1754 0.600098 16.3524 1.55479 12.9768 3.3626C12.3057 3.71807 12.0617 4.55088 12.4176 5.22119C12.7734 5.8915 13.6072 6.13525 14.2782 5.77979C17.2573 4.18525 20.633 3.34229 24.0391 3.34229C30.7395 3.34229 36.7078 6.5415 40.4902 11.4978C39.1176 11.122 37.8161 10.4212 36.7078 9.45635C33.1797 6.39932 28.6856 4.71338 24.0289 4.71338C19.3722 4.71338 14.8781 6.39932 11.3601 9.45635C10.2417 10.4313 8.94027 11.122 7.55748 11.4978C8.5539 10.1978 9.713 8.99932 11.0145 7.93291C11.6042 7.45557 11.6957 6.59229 11.2178 6.00322C10.7399 5.41416 9.87568 5.32275 9.28597 5.8001C3.76499 10.2688 0.592712 16.9009 0.592712 23.9899L0.592712 34.6845C0.592712 40.961 5.70699 46.0696 11.9905 46.0696H12.8039C13.231 46.8618 14.0749 47.3899 15.0306 47.3899H17.6437C19.0468 47.3899 20.1856 46.2524 20.1856 44.8509L20.1856 24.2032C20.1856 22.8017 19.0468 21.6642 17.6437 21.6642H15.0306C13.9427 21.6642 13.0175 22.3446 12.6514 23.3095H11.9905C8.53357 23.3095 5.43247 24.8532 3.33795 27.2907V24.0001C3.33795 20.6587 4.13102 17.4392 5.61548 14.5649C8.37089 14.4431 11.0246 13.3767 13.1598 11.5181C16.1694 8.89776 20.0331 7.45557 24.0289 7.45557C28.0248 7.45557 31.8783 8.89776 34.898 11.5181C37.023 13.3665 39.6768 14.4329 42.4322 14.5548C43.8963 17.3884 44.7199 20.5978 44.7199 23.9899V27.2806C42.6254 24.8431 39.5243 23.2993 36.0673 23.2993H35.4064C35.0404 22.3446 34.1151 21.654 33.0272 21.654L30.4243 21.654C29.0212 21.654 27.8824 22.7915 27.8824 24.1931L27.8824 44.8509C27.8824 46.2524 29.0212 47.3899 30.4243 47.3899H33.0272C33.9829 47.3899 34.8268 46.8517 35.2539 46.0696H36.0673C42.3508 46.0696 47.4651 40.961 47.4651 34.6845V24.0001C47.4549 17.754 45.0147 11.8735 40.5919 7.45557ZM15.2442 24.4064H17.4403L17.4403 44.6579H15.2442V24.6806V24.4064ZM12.0007 26.0517H12.4989V43.3274H12.0007C7.23212 43.3274 3.34812 39.4478 3.34812 34.6845C3.34812 29.9212 7.23212 26.0517 12.0007 26.0517ZM30.6175 24.4064L32.8137 24.4064V24.6806V44.6579H30.6175L30.6175 24.4064ZM36.0571 43.3376H35.5589V26.0517H36.0571C40.8257 26.0517 44.7097 29.9314 44.7097 34.6946C44.7097 39.4579 40.8257 43.3376 36.0571 43.3376Z" fill="white"/>
</svg>
